<svg id="Ebene_1" data-name="Ebene 1" xmlns="http://www.w3.org/2000/svg" viewBox="0 0 143.11 265.62"><defs><style>.cls-1{fill:#e4eaea;}.cls-1,.cls-2{stroke:#c1d0d0;}.cls-2{fill:#c1d0d0;}</style></defs><g id="Gruppe_19" data-name="Gruppe 19"><g id="Komponente_4_2" data-name="Komponente 4 2"><path id="Pfad_20" data-name="Pfad 20" class="cls-1" d="M139.18,49.84a108.83,108.83,0,0,0-1.8-47.7c-10.75,4-21.76,8.78-25.81,14.23a59,59,0,0,0-9,18A109.59,109.59,0,0,0,127.06,82.4a.73.73,0,0,1,.4-.18.43.43,0,0,1,.26.09,109.34,109.34,0,0,0,11.46-32.47"/></g><g id="Komponente_7_2" data-name="Komponente 7 2"><path id="Pfad_26" data-name="Pfad 26" class="cls-1" d="M94.85,74.85c-2.45,8.56-12.2,25.28-19.72,39a40,40,0,0,1,29.11,14.27c6.12-12.68,12-25.5,16.32-34.36,3-6.19,5.35-10.44,6.5-11.33a109.61,109.61,0,0,1-24.49-48.07c-4.39,14-4.25,28.33-7.73,40.52"/></g><g id="Komponente_13_2" data-name="Komponente 13 2"><path id="Pfad_31" data-name="Pfad 31" class="cls-2" d="M7.54,225.45c-1.2,1.08-7.93,4.51-5.63,6.81,2.91,2.92,9.18-1,10.9-2.26,2-1.51,8.41-7.7,9.37-6.78s1.62,3.13.4,6.76c-1.48,4.44-5.7,15.66-6.49,18.31-1.47,4.92-3.12,7.92-.36,9.32,2.6,1.33,4-2.13,6-6.74.53-1.23,5.71-14.87,6.91-14.15s-3.23,14.9-4.14,18.44c-.86,3.28-3.49,8.19.4,9.06,3.31.74,4.61-5.43,5.38-7.43s3.21-9.26,4.63-13.54c.62-1.88,1.51-3,2-2.85s.43,1.43.14,3.26c-.68,4.17-1.86,9.63-2.63,13.3-.43,2-2.24,7,.88,7.62,2.51.48,3.39-2.76,4.14-4.78.69-1.83,2.49-9.36,4.2-15.48.62-2.23,1.82-4.62,2.2-4.58,1.58.17,0,9.84-.2,13.34-.2,3-.76,5.85,1.56,6.24,2.14.35,3-2.26,4-7.69.92-4.88,1.06-11.43,2.62-17.66,3.63-14.54,1.71-21.39,3.36-24.41.55-1,1.1-2,1.65-3-1.13-.89-2.27-1.75-3.43-2.6a111.42,111.42,0,0,0-14.26-8.75c-1.67,2.83-3.18,4.91-4.38,5.6A105.52,105.52,0,0,0,19.46,212.6,133.09,133.09,0,0,0,7.53,225.46"/></g><g id="Komponente_9_2" data-name="Komponente 9 2"><path id="Pfad_32" data-name="Pfad 32" class="cls-1" d="M66.59,131a40,40,0,0,0,27.79,16.67c3.23-6.06,6.58-12.8,9.85-19.57a40,40,0,0,0-29.1-14.27,175.26,175.26,0,0,0-8,15.77l-.55,1.4"/></g><g id="Komponente_11_2" data-name="Komponente 11 2"><path id="Pfad_33" data-name="Pfad 33" class="cls-1" d="M41.1,195.25A110.3,110.3,0,0,1,55.36,204c1.16.84,2.3,1.71,3.43,2.59C68.69,189,78.73,175.65,91.45,153q1.44-2.58,2.93-5.37A40,40,0,0,1,66.59,131c-4.59,11.91-8.32,28.86-12,36.11-2.8,5.59-8.76,20-13.54,28.15"/></g></g></svg>