<svg id="Ebene_1" data-name="Ebene 1" xmlns="http://www.w3.org/2000/svg" viewBox="0 0 143.11 265.62"><defs><style>.cls-1{fill:#e4eaea;}.cls-1,.cls-2{stroke:#c1d0d0;}.cls-2{fill:#c1d0d0;}</style></defs><g id="Gruppe_19" data-name="Gruppe 19"><g id="Komponente_4_2" data-name="Komponente 4 2"><path id="Pfad_20" data-name="Pfad 20" class="cls-1" d="M3.26,49.84A109.32,109.32,0,0,0,14.71,82.31a.46.46,0,0,1,.27-.09.7.7,0,0,1,.39.18A109.61,109.61,0,0,0,39.86,34.33a59,59,0,0,0-9-18C26.81,10.92,15.81,6.12,5.06,2.14a109,109,0,0,0-1.81,47.7"/></g><g id="Komponente_7_2" data-name="Komponente 7 2"><path id="Pfad_26" data-name="Pfad 26" class="cls-1" d="M47.6,74.85c-3.48-12.19-3.35-26.51-7.74-40.52A109.61,109.61,0,0,1,15.37,82.4c1.15.89,3.46,5.14,6.51,11.33,4.35,8.86,10.2,21.68,16.32,34.36a40,40,0,0,1,29.11-14.27c-7.52-13.69-17.28-30.41-19.72-39"/></g><g id="Komponente_13_2" data-name="Komponente 13 2"><path id="Pfad_31" data-name="Pfad 31" class="cls-1" d="M134.9,225.46A133,133,0,0,0,123,212.6a105.52,105.52,0,0,0-17.26-11.76c-1.2-.69-2.72-2.77-4.38-5.6A110.73,110.73,0,0,0,87.08,204c-1.17.85-2.31,1.71-3.43,2.6.55,1,1.1,2,1.65,3,1.65,3-.27,9.87,3.36,24.41,1.55,6.23,1.7,12.78,2.61,17.66,1,5.43,1.84,8,4,7.69,2.33-.39,1.76-3.19,1.57-6.24-.23-3.5-1.79-13.17-.2-13.34.38,0,1.57,2.35,2.2,4.58,1.71,6.12,3.51,13.65,4.19,15.48.75,2,1.63,5.26,4.15,4.78,3.12-.61,1.3-5.6.88-7.62-.77-3.67-2-9.13-2.63-13.3-.3-1.83-.36-3.09.14-3.26s1.35,1,2,2.85c1.42,4.28,3.84,11.5,4.63,13.54s2.08,8.17,5.38,7.43c3.89-.87,1.26-5.78.41-9.06-.92-3.54-5.2-17.8-4.14-18.44s6.38,12.92,6.91,14.15c2,4.61,3.4,8.07,6,6.74s1.1-4.4-.36-9.32c-.79-2.65-5-13.87-6.5-18.31-1.21-3.63-.53-5.86.4-6.76s7.4,5.27,9.38,6.78c1.71,1.3,8,5.18,10.9,2.26,2.3-2.3-4.44-5.73-5.63-6.81"/></g><g id="Komponente_9_2" data-name="Komponente 9 2"><path id="Pfad_32" data-name="Pfad 32" class="cls-2" d="M75.84,131c-.18-.48-.36-1-.55-1.4a172.58,172.58,0,0,0-8-15.77,40,40,0,0,0-29.1,14.27c3.27,6.77,6.61,13.51,9.85,19.57A40,40,0,0,0,75.85,131"/></g><g id="Komponente_11_2" data-name="Komponente 11 2"><path id="Pfad_33" data-name="Pfad 33" class="cls-1" d="M101.34,195.25c-4.79-8.15-10.75-22.56-13.55-28.15-3.62-7.25-7.36-24.2-12-36.11a39.93,39.93,0,0,1-27.79,16.67c1,1.86,2,3.65,2.94,5.37,12.72,22.62,22.76,36,32.66,53.56,1.12-.88,2.26-1.75,3.43-2.59a109.63,109.63,0,0,1,14.26-8.75"/></g></g></svg>