<svg id="Ebene_1" data-name="Ebene 1" xmlns="http://www.w3.org/2000/svg" viewBox="0 0 132.65 267.19"><defs><style>.cls-1{fill:#e4eaea;}.cls-1,.cls-2{stroke:#c1d0d0;}.cls-2{fill:#c1d0d0;}</style></defs><g id="Gruppe_19" data-name="Gruppe 19"><g id="Komponente_15_2" data-name="Komponente 15 2"><path id="Pfad_27" data-name="Pfad 27" class="cls-1" d="M66.13,252.89a4.92,4.92,0,0,1,2.71,1,102.58,102.58,0,0,1,61.93-2.33,197.94,197.94,0,0,0-3.49-28.81c-4.53-22.37-10.34-45.36-13.49-62a88.39,88.39,0,0,1-47.66,13.89Z"/></g><g id="Komponente_3_2" data-name="Komponente 3 2"><path id="Pfad_30" data-name="Pfad 30" class="cls-1" d="M105.31,56.05A101.75,101.75,0,0,1,107,11.52C95.92,7.42,85.14,4.26,83.7,2.26c0,0,0,0,0,0A37.38,37.38,0,0,1,48.13,2a1.35,1.35,0,0,1-.15.26c-1.48,2-11.93,5.11-22.75,9.16a101.61,101.61,0,0,1,1.71,44.63,102,102,0,0,1-10.69,30.3,3.48,3.48,0,0,1,.92,1.82c2.42,8.14,3.47,40.37,3.57,54.54,0,4.25-1,10.43-2.5,17.9a88.76,88.76,0,0,0,95.55.13,104.25,104.25,0,0,1-2.28-18c.1-14.13,1-46.23,3.51-54.48a3.5,3.5,0,0,1,1-1.88,102,102,0,0,1-10.69-30.3"/></g><g id="Komponente_14_2" data-name="Komponente 14 2"><path id="Pfad_38" data-name="Pfad 38" class="cls-2" d="M18.24,160.61C14.81,177.2,8.66,200.18,5,222.73a250,250,0,0,0-2.88,28.64,102.54,102.54,0,0,1,61.32,2.5,4.94,4.94,0,0,1,2.71-1V174.62a88.27,88.27,0,0,1-47.88-14"/></g></g><path class="cls-1" d="M74.2,265.62h57c0-4.66-.14-9.36-.39-14.08a102.54,102.54,0,0,0-61.92,2.33l.48.36C72.17,256.53,73.45,260.61,74.2,265.62Z"/><path class="cls-1" d="M58.05,265.62c.75-5,2-9.09,4.88-11.39.15-.12.32-.24.48-.35a102.51,102.51,0,0,0-61.31-2.5h0c-.23,4.79-.33,9.55-.36,14.24Z"/><path class="cls-1" d="M116.19,86.15l11.37-64.73c-4.94-3.71-12.82-7-20.57-9.9a101.6,101.6,0,0,0-1.69,44.53h0A102,102,0,0,0,116,86.35Z"/><path class="cls-1" d="M16,86.05,4.78,21.28c4.93-3.71,12.82-7,20.57-9.91A101.61,101.61,0,0,1,27,55.9h0A102,102,0,0,1,16.34,86.2Z"/></svg>