<svg id="Ebene_1" data-name="Ebene 1" xmlns="http://www.w3.org/2000/svg" viewBox="0 0 99.27 265.62"><defs><style>.cls-1{fill:#e4eaea;}.cls-1,.cls-2{stroke:#c1d0d0;}.cls-2,.cls-3{fill:#c1d0d0;}</style></defs><g id="Gruppe_19" data-name="Gruppe 19"><g id="Komponente_19_2" data-name="Komponente 19 2"><path id="Pfad_28" data-name="Pfad 28" class="cls-1" d="M74.08,98.47a34.16,34.16,0,0,0-31.46-5.86c-1.35,9.59-3.59,15.67-4.92,24.57A34.19,34.19,0,0,0,69.41,122c0-1.83-.23-3.29-.3-9.55,0-3.81,2.3-8.5,5-14"/></g><g id="Komponente_17_2" data-name="Komponente 17 2"><path id="Pfad_29" data-name="Pfad 29" class="cls-1" d="M97.6,7.16A93.84,93.84,0,0,0,41,5c-1.81,33.89,3.78,67.42,2.15,83.54-.14,1.42-.3,2.76-.48,4a34.14,34.14,0,0,1,31.46,5.86c2.8-5.71,6-12.27,7.1-19.56,2.15-13.6,3.54-21.36,7.7-34.21,4.62-14.24,1.29-31.56,8.28-37.22l.44-.32"/></g><g id="Komponente_21_2" data-name="Komponente 21 2"><path id="Pfad_34" data-name="Pfad 34" class="cls-1" d="M69.41,122a34.19,34.19,0,0,1-31.71-4.81c-.31,2.08-.57,4.31-.76,6.78-1.84,24.46,1.24,63.77.64,71.66a66.42,66.42,0,0,1-2.24,13.63,34.25,34.25,0,0,0,17.72.41c0-2.68.14-6,.36-10.29.55-11,14.19-45.53,15.49-66.37.45-7.13.54-9.24.5-11"/></g><g id="Komponente_23_2" data-name="Komponente 23 2"><path id="Pfad_40" data-name="Pfad 40" class="cls-2" d="M53.06,209.64a34.14,34.14,0,0,1-17.72-.41,24,24,0,0,1-3.17,6.94C28.76,221,11.4,238.38,6.46,242.65c-7.36,6.35-7,12.41-1.85,18.29,3.34,3.81,14.08,5.38,19.76,1.21s10.36-18.62,15-23.95c2.69-3.11,5.49-2.9,8.48-5.24s7.19-5.37,5.89-13.62a57.18,57.18,0,0,1-.64-9.69"/></g></g><ellipse class="cls-3" cx="97.72" cy="7.16" rx="0.32" ry="0.48"/></svg>