<svg id="Ebene_1" data-name="Ebene 1" xmlns="http://www.w3.org/2000/svg" viewBox="0 0 134.44 267.19"><defs><style>.cls-1{fill:#c1d0d0;}.cls-1,.cls-2{stroke:#c1d0d0;}.cls-2{fill:#e4eaea;}</style></defs><g id="Gruppe_19" data-name="Gruppe 19"><g id="Komponente_15_2" data-name="Komponente 15 2"><path id="Pfad_27" data-name="Pfad 27" class="cls-1" d="M66.67,252.89a5,5,0,0,1,2.72,1,102.58,102.58,0,0,1,61.93-2.33,199.33,199.33,0,0,0-3.49-28.81c-4.54-22.37-10.35-45.36-13.5-62a88.34,88.34,0,0,1-47.66,13.89Z"/></g><g id="Komponente_3_2" data-name="Komponente 3 2"><path id="Pfad_30" data-name="Pfad 30" class="cls-2" d="M105.86,56.05a101.6,101.6,0,0,1,1.68-44.53C96.47,7.42,85.69,4.26,84.25,2.26l0,0A37.36,37.36,0,0,1,48.68,2a1.35,1.35,0,0,1-.15.26c-1.48,2-11.94,5.11-22.75,9.16a101.61,101.61,0,0,1,1.71,44.63A102,102,0,0,1,16.8,86.35a3.48,3.48,0,0,1,.92,1.82c2.42,8.14,3.47,40.37,3.57,54.54,0,4.25-1,10.43-2.51,17.9a88.76,88.76,0,0,0,95.55.13,104.24,104.24,0,0,1-2.27-18c.1-14.13,1-46.23,3.51-54.48a3.43,3.43,0,0,1,1-1.88,101.76,101.76,0,0,1-10.69-30.3"/></g><g id="Komponente_14_2" data-name="Komponente 14 2"><path id="Pfad_38" data-name="Pfad 38" class="cls-2" d="M18.78,160.61c-3.42,16.59-9.57,39.57-13.27,62.12a247.79,247.79,0,0,0-2.87,28.64A102.51,102.51,0,0,1,64,253.87a5,5,0,0,1,2.72-1V174.62a88.3,88.3,0,0,1-47.89-14"/></g></g><path class="cls-2" d="M74.75,265.62h57c0-4.66-.14-9.36-.39-14.08a102.58,102.58,0,0,0-61.93,2.33c.17.12.33.23.48.36C72.72,256.53,74,260.61,74.75,265.62Z"/><path class="cls-2" d="M58.6,265.62c.75-5,2-9.09,4.88-11.39a5.92,5.92,0,0,1,.48-.35,102.54,102.54,0,0,0-61.32-2.5h0c-.22,4.79-.33,9.55-.35,14.24Z"/><path class="cls-2" d="M116.74,86.15,128.1,21.42c-4.93-3.71-12.81-7-20.57-9.9a101.75,101.75,0,0,0-1.68,44.53h0a101.78,101.78,0,0,0,10.7,30.3Z"/><path class="cls-2" d="M16.59,86.05,5.33,21.28c4.93-3.71,12.81-7,20.57-9.91A101.76,101.76,0,0,1,27.58,55.9h0A101.76,101.76,0,0,1,16.88,86.2Z"/></svg>