<svg id="Ebene_1" data-name="Ebene 1" xmlns="http://www.w3.org/2000/svg" viewBox="0 0 99.27 265.62"><defs><style>.cls-1{fill:#e4eaea;}.cls-1,.cls-2{stroke:#c1d0d0;}.cls-2,.cls-3{fill:#c1d0d0;}</style></defs><g id="Gruppe_19" data-name="Gruppe 19"><g id="Komponente_19_2" data-name="Komponente 19 2"><path id="Pfad_28" data-name="Pfad 28" class="cls-1" d="M24.77,98.47c2.67,5.46,5,10.15,5,14-.08,6.26-.26,7.72-.31,9.55a34.19,34.19,0,0,0,31.71-4.8c-1.33-8.9-3.57-15-4.92-24.57a34.17,34.17,0,0,0-31.46,5.86"/></g><g id="Komponente_17_2" data-name="Komponente 17 2"><path id="Pfad_29" data-name="Pfad 29" class="cls-1" d="M1.25,7.16l.44.32c7,5.66,3.67,23,8.28,37.22,4.16,12.85,5.55,20.61,7.7,34.21,1.15,7.29,4.3,13.85,7.1,19.56a34.14,34.14,0,0,1,31.46-5.86c-.18-1.28-.34-2.62-.48-4C54.12,72.45,59.71,38.92,57.9,5A93.84,93.84,0,0,0,1.25,7.16"/></g><g id="Komponente_21_2" data-name="Komponente 21 2"><path id="Pfad_34" data-name="Pfad 34" class="cls-1" d="M29.44,122c0,1.77,0,3.88.5,11,1.3,20.84,14.94,55.37,15.5,66.37.22,4.33.33,7.61.35,10.29a34.25,34.25,0,0,0,17.72-.41,66.42,66.42,0,0,1-2.24-13.63c-.59-7.89,2.48-47.2.64-71.66-.19-2.47-.45-4.7-.76-6.78A34.19,34.19,0,0,1,29.44,122"/></g><g id="Komponente_23_2" data-name="Komponente 23 2"><path id="Pfad_40" data-name="Pfad 40" class="cls-2" d="M45.79,209.65a56.16,56.16,0,0,1-.64,9.69c-1.3,8.25,2.9,11.29,5.89,13.62s5.79,2.13,8.48,5.24c4.6,5.33,9.27,19.77,15,23.95s16.42,2.6,19.77-1.21c5.17-5.88,5.5-11.94-1.86-18.29C87.45,238.38,70.1,221,66.68,216.17a24,24,0,0,1-3.17-6.94,34.14,34.14,0,0,1-17.72.41"/></g></g><ellipse class="cls-3" cx="1.13" cy="7.16" rx="0.32" ry="0.48"/></svg>