<svg id="Ebene_1" data-name="Ebene 1" xmlns="http://www.w3.org/2000/svg" viewBox="0 0 141.14 274"><defs><style>.cls-1{fill:#e4eaea;}.cls-1,.cls-2{stroke:#c1d0d0;}.cls-2{fill:#c1d0d0;}</style></defs><g id="Gruppe_19" data-name="Gruppe 19"><g id="Komponente_15_2" data-name="Komponente 15 2"><path id="Pfad_27" data-name="Pfad 27" class="cls-1" d="M72.34,257a5,5,0,0,1,2.72,1A102.5,102.5,0,0,1,137,255.66a199.46,199.46,0,0,0-3.49-28.82c-4.53-22.36-10.35-45.35-13.49-62a88.39,88.39,0,0,1-47.67,13.88Z"/></g><g id="Komponente_3_2" data-name="Komponente 3 2"><path id="Pfad_30" data-name="Pfad 30" class="cls-2" d="M111.53,60.16a101.61,101.61,0,0,1,1.68-44.53c-11.07-4.09-21.85-7.25-23.29-9.26l0,0a37.38,37.38,0,0,1-35.55-.24,1.35,1.35,0,0,1-.15.26c-1.48,2-11.94,5.12-22.75,9.16a101.61,101.61,0,0,1,1.71,44.63A102.1,102.1,0,0,1,22.47,90.47a3.49,3.49,0,0,1,.92,1.81c2.42,8.14,3.47,40.38,3.57,54.54,0,4.26-1,10.44-2.5,17.9a88.76,88.76,0,0,0,95.55.14,103.4,103.4,0,0,1-2.28-18c.1-14.12,1-46.22,3.51-54.47a3.53,3.53,0,0,1,1-1.89,102,102,0,0,1-10.69-30.3"/></g><g id="Komponente_14_2" data-name="Komponente 14 2"><path id="Pfad_38" data-name="Pfad 38" class="cls-1" d="M24.45,164.72c-3.42,16.6-9.57,39.58-13.26,62.12a250.21,250.21,0,0,0-2.88,28.65A102.51,102.51,0,0,1,69.62,258a5,5,0,0,1,2.72-1V178.74a88.47,88.47,0,0,1-47.89-14"/></g></g><path class="cls-1" d="M80.42,269.74h57c0-4.66-.14-9.37-.39-14.08A102.47,102.47,0,0,0,75.07,258l.47.35C78.39,260.65,79.67,264.72,80.42,269.74Z"/><path class="cls-1" d="M64.27,269.74c.75-5,2-9.09,4.88-11.4a5.92,5.92,0,0,1,.48-.35,102.59,102.59,0,0,0-61.31-2.5h0C8.09,260.28,8,265,8,269.74Z"/><path class="cls-1" d="M122.41,90.27l11.36-64.73c-4.93-3.71-12.81-7-20.57-9.91a101.76,101.76,0,0,0-1.68,44.53h0a101.48,101.48,0,0,0,10.69,30.3Z"/><path class="cls-1" d="M22.26,90.16,11,25.39c4.93-3.71,12.81-7,20.57-9.9A101.71,101.71,0,0,1,33.25,60h0a101.74,101.74,0,0,1-10.7,30.31Z"/></svg>