<svg id="Ebene_1" data-name="Ebene 1" xmlns="http://www.w3.org/2000/svg" xmlns:xlink="http://www.w3.org/1999/xlink" viewBox="0 0 185.1 274"><defs><style>.cls-1,.cls-4{fill:none;}.cls-2{clip-path:url(#clip-path);}.cls-3{fill:#c1d0d0;}.cls-4{stroke:#c1d0d0;}.cls-5{fill:#e4eaea;}</style><clipPath id="clip-path"><rect class="cls-1" width="185.1" height="274"/></clipPath></defs><g id="Gruppe_75" data-name="Gruppe 75"><g class="cls-2"><g id="Gruppe_74" data-name="Gruppe 74"><path id="Pfad_53" data-name="Pfad 53" class="cls-3" d="M131.62,205.3c-3.56-5.31,0-51.42,1.56-53.63s6.79-4.26,11.13-5.47,14-10.88,18.86-31-2.92-23.25-2.92-23.25,3.85-23.5-1.79-41.74C151,26,124.12,1.38,92.58,1.38S35.65,26.21,26.71,50.18C20,68.05,24.92,91.91,24.92,91.91S17.19,95,22,115.16,36.52,145,40.86,146.21s9.61,3.25,11.13,5.47,3.84,45.8.59,53.1a83.08,83.08,0,0,0,79.05.52"/><path id="Pfad_54" data-name="Pfad 54" class="cls-4" d="M131.62,205.3c-3.56-5.31,0-51.42,1.56-53.63s6.79-4.26,11.13-5.47,14-10.88,18.86-31-2.92-23.25-2.92-23.25,3.85-23.5-1.79-41.74C151,26,124.12,1.38,92.58,1.38S35.65,26.21,26.71,50.18C20,68.05,24.92,91.91,24.92,91.91S17.19,95,22,115.16,36.52,145,40.86,146.21s9.61,3.25,11.13,5.47,3.84,45.8.59,53.1a83.08,83.08,0,0,0,79.05.52"/><path id="Pfad_55" data-name="Pfad 55" class="cls-5" d="M176.22,272.62A225.26,225.26,0,0,1,183.45,226c-24.62-9.11-48.59-16.13-51.8-20.59a.09.09,0,0,0,0-.06,83.08,83.08,0,0,1-79.05-.53,2.66,2.66,0,0,1-.34.59C49,209.79,25.7,216.73,1.66,225.72A226.17,226.17,0,0,1,9,272.62Z"/><path id="Pfad_56" data-name="Pfad 56" class="cls-4" d="M176.22,272.62A225.26,225.26,0,0,1,183.45,226c-24.62-9.11-48.59-16.13-51.8-20.59a.09.09,0,0,0,0-.06,83.08,83.08,0,0,1-79.05-.53,2.66,2.66,0,0,1-.34.59C49,209.79,25.7,216.73,1.66,225.72A226.17,226.17,0,0,1,9,272.62Z"/></g></g></g></svg>