<?xml version="1.0" encoding="UTF-8"?><svg id="Ebene_1" xmlns="http://www.w3.org/2000/svg" xmlns:xlink="http://www.w3.org/1999/xlink" viewBox="0 0 867 1152"><defs><style>.cls-1{fill:none;}.cls-2{clip-path:url(#clippath);}.cls-3{fill:#dadada;isolation:isolate;opacity:.25;}.cls-4{fill:#e4eaea;stroke:#c1d0d0;}.cls-5{opacity:.35;}</style><clipPath id="clippath"><rect class="cls-1" x="195" width="541" height="999"/></clipPath></defs><g id="Background_Shape_2" class="cls-5"><path id="Background_Shape" class="cls-3" d="M.38,1006.71c12.64-108.04,690.72-316.55,816.6-214.23,125.88,102.33,4.86,294.38-258.94,343.55C294.23,1185.22-12.26,1114.75,.38,1006.71Z"/></g><g class="cls-2"><g id="Gruppe_19"><g id="Komponente_5_2"><path id="Pfad_19" class="cls-4" d="M385.87,283.31c.16-.15,.35-.25,.57-.28,.14,0,.28,.06,.39,.14,8.11-14.94,13.81-31.07,16.87-47.79,4.33-23.37,3.41-47.41-2.7-70.38-15.73,5.89-31.94,13-37.96,21.1-5.89,7.99-10.36,16.94-13.24,26.44,5.94,26.22,18.33,50.55,36.06,70.77"/></g><g id="Komponente_4_2"><path id="Pfad_20" class="cls-4" d="M527.3,235.37c3.06,16.72,8.75,32.85,16.86,47.79,.12-.08,.25-.12,.39-.13,.22,.03,.42,.12,.58,.27,17.73-20.22,30.12-44.54,36.05-70.76-2.87-9.5-7.35-18.44-13.24-26.44-5.97-8.02-22.18-15.09-38-20.94-6.07,22.92-6.98,46.9-2.66,70.21"/></g><g id="Komponente_2_2"><path id="Pfad_21" class="cls-4" d="M493.2,150.51c-2.53-3.76,.03-36.47,1.11-38.04s4.82-3.02,7.9-3.88,9.96-7.71,13.37-22.02-2.07-16.49-2.07-16.49c0,0,2.73-16.67-1.27-29.6-5.32-17.17-24.36-34.6-46.73-34.6s-40.39,17.6-46.73,34.61c-4.73,12.68-1.27,29.6-1.27,29.6,0,0-5.49,2.17-2.07,16.49,3.42,14.32,10.3,21.17,13.38,22.02,3.07,.86,6.82,2.31,7.9,3.88,1.05,1.52,2.73,32.48,.42,37.66,17.43,9.58,38.52,9.72,56.08,.37"/></g><g id="Komponente_6_2"><path id="Pfad_22" class="cls-4" d="M367.15,257.1c-7.97-13.91-13.82-28.93-17.35-44.56-6.45,20.62-6.26,41.7-11.38,59.64-3.6,12.6-17.96,37.22-29.03,57.37,16.62,.65,32.19,8.29,42.87,21.03,9.12-18.84,17.85-37.91,24.27-50.96,4.39-8.91,7.69-15,9.33-16.31-7.09-8.09-13.36-16.87-18.71-26.21"/></g><g id="Komponente_12_2"><path id="Pfad_23" class="cls-4" d="M259.29,449.41c-2.44,4.16-4.69,7.22-6.45,8.24-9.02,4.92-17.53,10.72-25.41,17.31-6.27,5.92-12.13,12.24-17.56,18.94-1.77,1.58-11.68,6.64-8.29,10.03,4.29,4.28,13.52-1.43,16.05-3.34,2.91-2.22,12.38-11.33,13.8-9.97,1.37,1.33,2.38,4.6,.59,9.95-2.18,6.53-8.4,23.05-9.56,26.95-2.16,7.24-4.58,11.66-.53,13.73,3.84,1.96,5.94-3.14,8.86-9.93,.78-1.81,8.41-21.89,10.17-20.82,1.55,.94-4.75,21.93-6.1,27.15-1.25,4.83-5.12,12.05,.6,13.33,4.87,1.09,6.78-7.99,7.92-10.95,1.16-3,4.73-13.62,6.82-19.93,.92-2.77,2.21-4.43,2.91-4.19,.74,.25,.64,2.1,.21,4.79-1,6.14-2.73,14.17-3.87,19.59-.63,2.97-3.3,10.31,1.3,11.2,3.7,.72,5-4.06,6.1-7.03,1.01-2.7,3.66-13.79,6.18-22.79,.91-3.27,2.68-6.8,3.23-6.74,2.34,.25,.04,14.48-.29,19.63-.29,4.5-1.12,8.62,2.31,9.18,3.14,.52,4.35-3.32,5.85-11.31,1.35-7.19,1.57-16.83,3.85-26.01,5.34-21.41,2.52-31.48,4.94-35.92,.81-1.48,1.62-2.94,2.43-4.38-1.65-1.3-3.34-2.57-5.06-3.82-6.66-4.82-13.68-9.13-21-12.88"/></g><g id="Komponente_8_2"><path id="Pfad_24" class="cls-4" d="M325.11,332.32c-5.09-1.63-10.38-2.57-15.72-2.78-4.31,7.54-8.23,15.29-11.75,23.22-.27,.67-.54,1.36-.81,2.06,9.56,13.59,24.43,22.5,40.92,24.54,4.76-8.92,9.69-18.82,14.52-28.79-7.13-8.54-16.55-14.87-27.16-18.26"/></g><g id="Komponente_10_2"><path id="Pfad_25" class="cls-4" d="M296.83,354.82c-6.76,17.53-12.26,42.49-17.59,53.15-4.12,8.23-12.9,29.45-19.95,41.44,7.32,3.76,14.34,8.06,21,12.88,1.72,1.24,3.4,2.52,5.06,3.82,14.57-25.9,29.35-45.54,48.08-78.85,1.42-2.52,2.86-5.17,4.32-7.9-16.49-2.04-31.36-10.95-40.92-24.54"/></g><g id="Komponente_7_2"><path id="Pfad_26" class="cls-4" d="M592.58,272.18c-5.12-17.94-4.92-39.01-11.39-59.64-5.93,26.22-18.33,50.55-36.06,70.76,1.69,1.32,5.09,7.57,9.58,16.69,6.41,13.03,15.02,31.9,24.03,50.57,10.69-12.73,26.25-20.35,42.86-21-11.07-20.15-25.43-44.77-29.03-57.37"/></g><g id="Komponente_15_2"><path id="Pfad_27" class="cls-4" d="M465.5,545.78c1.55,.08,3.04,.62,4.29,1.55,31.4-11.27,65.51-12.55,97.67-3.68-.72-15.26-2.56-30.44-5.5-45.43-7.15-35.27-16.32-71.52-21.29-97.75-22.45,14.33-48.54,21.93-75.17,21.9v123.41Z"/></g><g id="Komponente_19_2"><path id="Pfad_28" class="cls-4" d="M510.33,704.73c4.61,9.41,8.66,17.49,8.58,24.06-.13,10.8-.45,13.32-.52,16.47,18.47,6.49,38.95,3.38,54.67-8.29-2.29-15.34-6.16-25.81-8.48-42.35-18.64-5.83-38.96-2.04-54.25,10.1"/></g><g id="Komponente_17_2"><path id="Pfad_29" class="cls-4" d="M469.79,547.33c.26,.18,.51,.36,.76,.56,12.05,9.75,6.32,39.6,14.27,64.15,7.17,22.14,9.57,35.52,13.27,58.97,1.99,12.56,7.42,23.87,12.24,33.71,15.29-12.15,35.61-15.93,54.25-10.1-.31-2.2-.59-4.51-.84-6.95-2.8-27.8,6.83-85.59,3.71-144.01-32.16-8.87-66.27-7.59-97.67,3.68"/></g><g id="Komponente_3_2"><path id="Pfad_30" class="cls-4" d="M527.3,235.38c-4.32-23.31-3.41-47.29,2.66-70.21-17.46-6.46-34.46-11.44-36.74-14.6,0-.01-.02-.03-.02-.05-17.56,9.34-38.65,9.2-56.08-.37-.06,.15-.14,.29-.24,.42-2.33,3.14-18.82,8.06-35.88,14.44,6.11,22.97,7.03,47.01,2.7,70.38-3.06,16.72-8.76,32.85-16.87,47.79,.76,.79,1.27,1.78,1.46,2.86,3.81,12.84,5.47,63.67,5.63,86.01,.05,6.72-1.52,16.46-3.95,28.23,45.91,29.4,104.72,29.49,150.71,.21-2.02-9.36-3.22-18.88-3.59-28.44,.16-22.27,1.65-72.89,5.53-85.9,.2-1.13,.74-2.16,1.55-2.97-8.11-14.94-13.8-31.07-16.86-47.79"/></g><g id="Komponente_13_2"><path id="Pfad_31" class="cls-4" d="M721.12,493.89c-5.43-6.69-11.29-13.02-17.56-18.94-7.88-6.59-16.39-12.39-25.41-17.31-1.77-1.01-4-4.08-6.45-8.24-7.32,3.76-14.33,8.06-21,12.88-1.72,1.24-3.4,2.52-5.06,3.82,.81,1.44,1.62,2.9,2.43,4.38,2.43,4.45-.39,14.53,4.94,35.92,2.29,9.18,2.51,18.81,3.85,26.01,1.5,7.99,2.7,11.83,5.85,11.31,3.42-.57,2.59-4.69,2.3-9.18-.33-5.15-2.63-19.38-.29-19.63,.55-.06,2.32,3.46,3.23,6.74,2.52,9.01,5.17,20.09,6.18,22.79,1.11,2.97,2.4,7.75,6.1,7.03,4.59-.89,1.92-8.23,1.3-11.2-1.13-5.41-2.87-13.45-3.87-19.59-.44-2.69-.53-4.54,.21-4.79,.69-.23,1.99,1.43,2.91,4.19,2.09,6.31,5.65,16.93,6.82,19.93,1.14,2.96,3.06,12.04,7.92,10.95,5.73-1.29,1.86-8.51,.6-13.33-1.35-5.22-7.66-26.21-6.1-27.15,1.77-1.07,9.4,19.01,10.17,20.82,2.91,6.79,5.01,11.89,8.85,9.93,4.05-2.07,1.62-6.48-.53-13.73-1.16-3.89-7.38-20.42-9.56-26.95-1.78-5.35-.79-8.63,.59-9.95,1.42-1.36,10.88,7.75,13.8,9.97,2.52,1.92,11.76,7.63,16.05,3.34,3.39-3.39-6.53-8.44-8.29-10.03"/></g><g id="Komponente_9_2"><path id="Pfad_32" class="cls-4" d="M634.17,354.82c-.27-.7-.54-1.39-.81-2.06-3.52-7.93-7.44-15.68-11.75-23.22-16.61,.65-32.17,8.28-42.85,21.01,4.81,9.97,9.74,19.88,14.5,28.81,16.49-2.04,31.35-10.95,40.92-24.54"/></g><g id="Komponente_11_2"><path id="Pfad_33" class="cls-4" d="M671.71,449.41c-7.05-12-15.83-33.21-19.95-41.44-5.33-10.66-10.84-35.62-17.59-53.15-9.56,13.59-24.42,22.5-40.92,24.54,1.46,2.74,2.9,5.38,4.32,7.9,18.73,33.3,33.51,52.95,48.08,78.85,1.66-1.3,3.34-2.58,5.06-3.82,6.66-4.82,13.68-9.13,21-12.88"/></g><g id="Komponente_21_2"><path id="Pfad_34" class="cls-4" d="M518.4,745.25c-.07,3.05,.08,6.68,.85,18.98,2.25,35.92,25.76,95.44,26.72,114.4,.38,7.46,.58,13.11,.61,17.73,10.07,2.45,20.61,2.21,30.56-.71-2.11-7.68-3.4-15.55-3.87-23.5-1.02-13.59,4.28-81.36,1.1-123.53-.32-4.25-.77-8.09-1.31-11.68-15.72,11.67-36.2,14.77-54.67,8.29"/></g><g id="Komponente_18_2"><path id="Pfad_35" class="cls-4" d="M366.42,694.62c-2.32,16.54-6.19,27.01-8.48,42.35,15.72,11.67,36.2,14.77,54.67,8.28-.08-3.14-.39-5.67-.52-16.47-.08-6.57,3.97-14.65,8.58-24.06-15.29-12.15-35.61-15.93-54.25-10.1"/></g><g id="Komponente_16_2"><path id="Pfad_36" class="cls-4" d="M364.51,543.4c-2.75,59.61,5.57,116.26,2.75,144.28-.25,2.44-.53,4.75-.84,6.95,18.64-5.83,38.96-2.04,54.25,10.1,4.82-9.84,10.26-21.13,12.24-33.71,3.71-23.45,6.1-36.83,13.27-58.97,7.95-24.55,2.22-54.4,14.27-64.15,.24-.2,.5-.38,.75-.56-31.08-11.15-64.82-12.52-96.7-3.94"/></g><g id="Komponente_20_2"><path id="Pfad_37" class="cls-4" d="M372.63,744.93c-5.25-1.94-10.19-4.62-14.69-7.96-.53,3.58-.98,7.42-1.3,11.68-3.18,42.16,2.12,109.93,1.1,123.53-.47,7.95-1.76,15.82-3.87,23.5,9.95,2.91,20.49,3.16,30.56,.7,.03-4.62,.23-10.27,.61-17.73,.96-18.97,24.48-78.48,26.72-114.4,.77-12.3,.92-15.94,.85-18.98-12.95,4.57-27.1,4.46-39.98-.33"/></g><g id="Komponente_14_2"><path id="Pfad_38" class="cls-4" d="M389.96,400.26c-5.41,26.17-15.1,62.41-20.93,97.95-2.38,14.96-3.89,30.04-4.53,45.17,31.88-8.59,65.63-7.22,96.71,3.94,1.25-.93,2.74-1.47,4.29-1.55v-123.41c-26.78,.04-53-7.64-75.53-22.11"/></g><g id="Komponente_22_2"><path id="Pfad_39" class="cls-4" d="M353.86,895.67c-1.17,4.25-3.02,8.29-5.46,11.96-5.89,8.37-35.81,38.28-44.33,45.64-12.68,10.95-12.12,21.4-3.19,31.53,5.77,6.55,24.27,9.27,34.08,2.07,9.81-7.2,17.86-32.09,25.78-41.27,4.65-5.38,9.47-5.02,14.63-9.03,5.16-4.01,12.39-9.26,10.15-23.49-.85-5.53-1.21-11.11-1.09-16.7-10.07,2.45-20.61,2.21-30.56-.71"/></g><g id="Komponente_23_2"><path id="Pfad_40" class="cls-4" d="M546.57,896.37c.12,5.59-.25,11.18-1.09,16.7-2.24,14.23,5,19.47,10.15,23.49,5.16,4.02,9.98,3.66,14.62,9.03,7.93,9.19,15.98,34.07,25.78,41.27,9.81,7.2,28.32,4.48,34.08-2.07,8.93-10.14,9.48-20.58-3.19-31.53-8.53-7.37-38.44-37.27-44.34-45.64-2.44-3.67-4.29-7.71-5.46-11.96-9.95,2.91-20.49,3.16-30.56,.71"/></g></g></g></svg>