<svg xmlns="http://www.w3.org/2000/svg" viewBox="0 0 81.48 10.76" height="1em"><defs><style>.cls-1{fill:#ffffff;}</style></defs><g id="Ebene_2" data-name="Ebene 2"><g id="Ebene_1-2" data-name="Ebene 1"><path class="cls-1" d="M1.32,5V10.1a.58.58,0,0,1-.66.66A.58.58,0,0,1,0,10.1V4.47a.76.76,0,0,1,.21-.66.71.71,0,0,1,.58-.18h3.7a.61.61,0,0,1,.67.66A.61.61,0,0,1,4.49,5Z"/><path class="cls-1" d="M12.19,4.9c-.37,0-.88-.08-.88-.64s.45-.63.88-.63h1.74a2,2,0,0,1,1.65.57,1.85,1.85,0,0,1,.57,1.51l.13,3.86c0,.69-.28,1.19-1.14,1.19h-3a2,2,0,0,1-1.44-.45,1.76,1.76,0,0,1-.66-1.56V8.19a1.64,1.64,0,0,1,.62-1.41,2.07,2.07,0,0,1,1.48-.48h2.73V6c0-1-.21-1.11-1.13-1.11Zm0,2.67c-.34,0-.84.09-.84.56V9c0,.42.51.51.82.51h2.17c.47,0,.63-.14.63-.53V8.49c0-.71-.19-.92-.9-.92Z"/><path class="cls-1" d="M23,4.67V0h1.32V4.67Z"/><path class="cls-1" d="M35.48,3.77a1,1,0,0,1,.58.12v-2c0-.44.09-.87.63-.87s.64.43.64.87V9.49c0,.74-.34,1.27-1.17,1.27H33.33a2,2,0,0,1-1.09-.45l-.43-.37a1.64,1.64,0,0,1-.7-1.47V6.06a1.65,1.65,0,0,1,.7-1.47l.43-.37a1.62,1.62,0,0,1,1.22-.45ZM32.38,8c0,.36,0,.81.2,1l.38.3a.86.86,0,0,0,.48.25H35.5a.53.53,0,0,0,.56-.57V5.64A.56.56,0,0,0,35.5,5H33.44A.82.82,0,0,0,33,5.3l-.38.3c-.2.16-.2.61-.2,1Z"/><path class="cls-1" d="M46.09,9.49H47c.42,0,.87.09.87.64s-.5.63-.87.63H43.81c-.37,0-.87-.08-.87-.63s.45-.64.87-.64h1V4.9h-1c-.37,0-.87-.08-.87-.64s.45-.63.87-.63h1.34c.72,0,.94.13.94.88ZM44.17,1.06a.53.53,0,0,1,.59-.6h.73a.53.53,0,0,1,.6.6v.61a.53.53,0,0,1-.6.59h-.73a.52.52,0,0,1-.59-.59Z"/><path class="cls-1" d="M55.29,4.67V0h1.32V4.67Z"/><path class="cls-1" d="M64.55,10.76a1.18,1.18,0,0,1-1.19-1.11V5a1.29,1.29,0,0,1,1.21-1.39h3.75A1.2,1.2,0,0,1,69.59,5V7.18c0,.72-.12.93-.88.93H64.63V9c0,.43.25.53.67.53h3.41c.43,0,.88.09.88.64s-.51.63-.88.63Zm.08-3.92h3.69V5.67c0-.46-.18-.77-.68-.77H65.37c-.46,0-.74.33-.74.88Z"/><path class="cls-1" d="M81.48,9.81l-.14-4c0-.69,0-1.27-.53-1.76a1.65,1.65,0,0,0-1.06-.42h-3.7a.69.69,0,0,0-.58.18.74.74,0,0,0-.22.66V10.1a.67.67,0,0,0,1.33,0V5h3.07c.37.12.42.43.44,1l.13,3.92c0,.43.12.86.63.86S81.49,10.26,81.48,9.81Z"/></g></g></svg>