<svg xmlns="http://www.w3.org/2000/svg" xmlns:xlink="http://www.w3.org/1999/xlink" viewBox="0 0 105.43 84.34"><defs><style>.cls-1{fill:url(#Unbenannter_Verlauf_1863);}.cls-2{fill:#1d1d1b;}</style><radialGradient id="Unbenannter_Verlauf_1863" cx="42.17" cy="42.17" r="42.17" gradientUnits="userSpaceOnUse"><stop offset="0" stop-color="#e6332a" stop-opacity="0.4"/><stop offset="0.22" stop-color="#e63429" stop-opacity="0.41"/><stop offset="0.39" stop-color="#e63627" stop-opacity="0.45"/><stop offset="0.54" stop-color="#e73a24" stop-opacity="0.52"/><stop offset="0.67" stop-color="#e74020" stop-opacity="0.62"/><stop offset="0.8" stop-color="#e8471a" stop-opacity="0.74"/><stop offset="0.92" stop-color="#e95012" stop-opacity="0.89"/><stop offset="1" stop-color="#ea560d"/></radialGradient></defs><g id="Ebene_2" data-name="Ebene 2"><g id="Ebene_1-2" data-name="Ebene 1"><path class="cls-1" d="M84.19,8.54l0-.33L16.48,16.34h-.13l-8.6,67.8.33,0,8.57-67.54Zm0,3.51-.06-.32L23.47,23.34l-.11,0L11.07,84.14l.32.06L23.64,23.64Zm0-1.17-.06-.33L21.14,21,21,21,10,84.14l.33.06,11-62.89Zm0-1.17,0-.33L18.81,18.67l-.12,0L8.85,84.15l.33,0L19,19Zm0,3.51-.07-.32L25.8,25.67l-.1,0L12.18,84.13l.32.08L26,26Zm0,1.17-.08-.32L28.13,28,28,28,13.28,84.13l.32.08,14.7-55.9Zm0,2.35-.1-.32L32.78,32.68l-.08,0L15.5,84.12l.31.1L33,33Zm0,1.17-.11-.32L35.11,35,35,35,16.61,84.11l.31.12L35.3,35.3Zm0-2.35-.09-.32L30.46,30.34l-.09,0-16,53.75.32.1L30.63,30.64Zm0-8.2,0-.33-70,7H14L6.64,84.15l.33,0,7.35-69.87Zm0-4.68V2.34L4.67,4.67,2.21,84.17h.34L5,5Zm0-2.68H0V84.17H.33V.33H84.17Zm0,1.5V1.17L2.5,2.33H2.34L1.11,84.17h.33L2.66,2.66Zm0,2.35,0-.33L7.16,7H7L3.32,84.16l.33,0L7.33,7.33Zm0,2.34,0-.33L11.82,11.67h-.14L5.53,84.16l.33,0L12,12Zm0-1.17,0-.33L9.34,9.34,4.43,84.16l.33,0L9.66,9.66Zm.09,19.9-.19-.27L49.07,49l-25.8,35,.27.2,25.75-35Zm0-5.84-.12-.31L37.44,37.35l-.06,0L17.72,84.11l.3.13L37.63,37.63ZM63.29,63.29l21-31.38L84,31.72l-21,31.33L30,84l.18.28,33.13-21Zm21-33.71-.25-.22-25.65,29L27.72,84l.21.26,30.7-25.69ZM65.62,65.63l18.7-32.56L84,32.9,65.38,65.38,31.07,84l.16.3L65.58,65.65ZM84.33,35.39,84,35.27,70,70,33.3,84l.12.31,36.88-14Zm0-7-.24-.24-28,27.87-29.44,28,.23.24,29.45-28ZM68,68,84.32,34.23l-.3-.14L67.71,67.71,32.18,84l.14.3L67.91,68ZM84.3,30.75,84,30.54,60.72,60.72,28.84,84l.19.27L60.93,61Zm0-9.34-.15-.29L42.09,42l0,0L19.93,84.09l.3.16,22.06-42Zm0-1.16-.14-.31L39.77,39.68l-.06,0L18.83,84.1l.3.14L40,40Zm0,2.33-.16-.29L44.42,44.36l0,0L21,84.09l.29.17L44.62,44.63Zm0,1.17-.18-.28L46.75,46.69l0,0L22.16,84.08l.27.18L47,47Zm0,3.5L84.06,27,53.71,53.72,25.49,84.06l.25.22L54,54Zm0-1.16-.2-.27L51.37,51.4l-27,32.67.26.21,27-32.65Zm.07,15.11H84.2L84.34,40l-.21,0,.2-1.14-.28-.05.28-1.11L84,37.64,74.7,74.7,35.65,84l37-11.34L84.33,36.55l-.32-.1L72.37,72.37,34.42,84l.09.32,1-.31.07.31,1-.25.05.25,1.07-.18,0,.19,1.09-.13v.13l1.1-.06v.06H84.34v-42h-.07ZM37.86,83.8l37-8.8L75,75l8.91-35.46L77,77ZM77.2,77.33l.11,0,6.47-35.39L79.35,79.35l-39.2,4.39Zm2.32,2.34.13,0,4.17-35.24L81.68,81.68,42.54,83.81ZM84,84H45l36.83-2H82l2-35Z"/><path class="cls-2" d="M25.28,56v5.15a.67.67,0,0,1-1.33,0V55.55a.75.75,0,0,1,.21-.66.72.72,0,0,1,.59-.18h3.7a.66.66,0,1,1,0,1.32Z"/><path class="cls-2" d="M36.14,56c-.37,0-.87-.08-.87-.64s.45-.63.87-.63h1.75a2,2,0,0,1,1.64.56,1.87,1.87,0,0,1,.57,1.51l.13,3.87c0,.69-.28,1.19-1.14,1.19h-3a2,2,0,0,1-1.44-.45A1.77,1.77,0,0,1,34,59.83v-.56a1.63,1.63,0,0,1,.62-1.41,2.07,2.07,0,0,1,1.48-.48h2.73v-.29c0-1-.21-1.11-1.13-1.11Zm0,2.67c-.35,0-.85.09-.85.56v.84c0,.43.51.52.82.52h2.17c.47,0,.64-.14.64-.53v-.48c0-.7-.2-.91-.9-.91Z"/><path class="cls-2" d="M47,55.75V51.08h1.33v4.67Z"/><path class="cls-2" d="M59.43,54.85A1,1,0,0,1,60,55V53c0-.44.09-.88.63-.88s.64.44.64.88v7.61c0,.73-.33,1.27-1.17,1.27H57.28a1.93,1.93,0,0,1-1.08-.45L55.76,61a1.64,1.64,0,0,1-.7-1.47V57.14a1.65,1.65,0,0,1,.7-1.47l.44-.37a1.58,1.58,0,0,1,1.21-.45Zm-3.1,4.2c0,.35,0,.8.2,1l.38.31a.86.86,0,0,0,.48.25h2.07A.53.53,0,0,0,60,60V56.72a.56.56,0,0,0-.55-.6H57.39a.86.86,0,0,0-.48.25l-.38.31c-.2.16-.2.61-.2,1Z"/><path class="cls-2" d="M70,60.57H71c.42,0,.87.09.87.63s-.5.64-.87.64H67.76c-.37,0-.87-.08-.87-.64s.45-.63.87-.63h1V56h-1c-.37,0-.87-.08-.87-.64s.45-.63.87-.63H69.1c.73,0,.94.13.94.88Zm-1.92-8.43a.53.53,0,0,1,.59-.6h.73a.53.53,0,0,1,.6.6v.61c0,.45-.25.59-.6.59h-.73a.52.52,0,0,1-.59-.59Z"/><path class="cls-2" d="M79.24,55.75V51.08h1.32v4.67Z"/><path class="cls-2" d="M88.5,61.84a1.18,1.18,0,0,1-1.18-1.11V56.09a1.28,1.28,0,0,1,1.2-1.38h3.75a1.2,1.2,0,0,1,1.27,1.37v2.17c0,.73-.12.94-.88.94H88.59V60c0,.44.24.54.66.54h3.41c.43,0,.88.09.88.63s-.51.64-.88.64Zm.09-3.92h3.68V56.75c0-.46-.18-.77-.68-.77H89.33c-.47,0-.74.32-.74.87Z"/><path class="cls-2" d="M105.43,60.89l-.13-4c0-.69,0-1.27-.53-1.76a1.67,1.67,0,0,0-1.07-.42H100a.7.7,0,0,0-.58.18.75.75,0,0,0-.21.66v5.63a.66.66,0,1,0,1.32,0V56h3.07c.37.11.42.43.44,1l.13,3.92c0,.42.12.86.64.86S105.44,61.34,105.43,60.89Z"/></g></g></svg>