<svg id="Ebene_1" data-name="Ebene 1" xmlns="http://www.w3.org/2000/svg" viewBox="0 0 471.71 435.23"><defs><style>.cls-1{fill:#ece9eb;opacity:0.45;}.cls-2{fill:#c1d0d0;}.cls-3{fill:#fdfdfd;}.cls-4{fill:#794931;}.cls-5{fill:#bb8b73;}.cls-6{fill:#2e3676;}.cls-7{fill:#5c63ab;}.cls-8{fill:#222045;}.cls-9{fill:#385757;}.cls-10{fill:#4b6868;}.cls-11{fill:#dde3e9;}.cls-12{opacity:0.35;}</style></defs><path class="cls-1" d="M431.49,294c-41.83,98.5-153.26,153.68-249.89,138.79-15.73-2.42-58.84-9.63-97-43.67C11.13,323.63-4.59,193.88,54.68,102.45,97.82,35.9,175.15-1.82,248.62.07,264.45.47,325.1,3,378.41,46.93a200.16,200.16,0,0,1,40.66,46.14C455.61,150.22,458.75,229.84,431.49,294Z"/><path class="cls-2" d="M346.36,75.68c-6.32-11.09-11.17-26-1.25-37.17,17.92-20.17,53.77-24.65,62.73,6.72,3.71,13,1.09,23.06-3.25,30.43a10.24,10.24,0,0,0,8.86,15.42h57.13v76.23a8.49,8.49,0,0,1-13.39,6.9c-38.33-26.61-58.31,4.77-58.36,18.89,0,15.69,6.77,52.65,31.42,51.53a60.67,60.67,0,0,0,27.53-8.26,8.49,8.49,0,0,1,12.8,7.29v71H411.45a8.82,8.82,0,0,0-7.39,13.64c4.39,6.77,8.06,16.58,8.26,30.55.51,35.55-53.77,29.13-67.21,17.92-9.6-8-10-33.66-2.52-49.52,2.76-5.87-1.78-12.59-8.26-12.59H276.77V237a7.28,7.28,0,0,0-11-6.26c-9.91,5.89-25.21,13.27-40.51,13.93-25.76,1.12-29.12-28-30.24-50.41-1-19.79,36.73-51.82,66.51-32.29,4.88,3.2,14.9,7.88,14.9,2V91.08h61.07A10.27,10.27,0,0,0,346.36,75.68Z"/><path class="cls-3" d="M378,386.81a74.9,74.9,0,0,1-9.31-.6c-10.25-1.3-19.58-4.56-24.33-8.52-10.36-8.63-10.21-35.19-2.82-50.88a7.41,7.41,0,0,0-.49-7.24,8,8,0,0,0-6.74-3.73H276.78a1.13,1.13,0,0,1-1.14-1.13V237a6.15,6.15,0,0,0-9.32-5.28c-10.19,6-25.58,13.41-41,14.09-11.88.52-20.45-5.23-25.46-17.08-4.24-10.05-5.4-23-6-34.41-.54-10.82,9.5-24.64,23.87-32.87,15.29-8.75,31.47-8.91,44.4-.43,4.5,3,10.56,5.47,12.54,4.41.16-.09.6-.33.6-1.41V91.08a1.14,1.14,0,0,1,1.14-1.14h61.07a9,9,0,0,0,7.87-4.51,9.13,9.13,0,0,0,0-9.19c-9-15.84-9.4-29.15-1.11-38.48,11-12.33,28.37-18.71,42.33-15.53,10.94,2.49,18.88,10.55,22.34,22.69,3.27,11.44,2.14,22-3.37,31.31a9.1,9.1,0,0,0,7.89,13.71h57.13a1.14,1.14,0,0,1,1.13,1.14v76.23a9.4,9.4,0,0,1-5.12,8.47,9.7,9.7,0,0,1-10-.64c-19-13.2-32.3-11.13-40.1-7.07-11.2,5.85-16.45,18.39-16.47,25,0,12.13,3.86,34,14.76,44.43a20.32,20.32,0,0,0,15.47,6,59,59,0,0,0,27-8.11,9.63,9.63,0,0,1,9.73,0,9.45,9.45,0,0,1,4.77,8.28v71a1.13,1.13,0,0,1-1.13,1.13H411.45a7.7,7.7,0,0,0-6.44,11.9c5.43,8.37,8.27,18.85,8.45,31.14.15,11-4.85,19.2-14.47,23.8C393.28,385.4,386,386.81,378,386.81ZM277.91,313.58h56.42a10.19,10.19,0,0,1,8.65,4.78,9.74,9.74,0,0,1,.63,9.42c-7.61,16.16-6.47,40.93,2.22,48.17,8.92,7.43,35.84,12.48,52.18,4.68,8.89-4.24,13.33-11.55,13.18-21.71C411,347.05,408.3,337,403.11,329a10,10,0,0,1,8.34-15.39h58V243.66a7.22,7.22,0,0,0-3.63-6.32,7.38,7.38,0,0,0-7.46,0,61.46,61.46,0,0,1-28.05,8.41,22.52,22.52,0,0,1-17.14-6.6c-11.41-10.93-15.5-33.54-15.46-46.07,0-7.41,5.53-20.69,17.7-27,8.35-4.35,22.49-6.63,42.44,7.21a7.31,7.31,0,0,0,7.7.5,7.18,7.18,0,0,0,3.9-6.46V92.21h-56a11.38,11.38,0,0,1-9.84-17.13c5.18-8.78,6.24-18.71,3.14-29.54-4.14-14.49-13.52-19.47-20.66-21.1-13.2-3-29.7,3.09-40.13,14.82-5.29,6-9.35,17,1.38,35.86h0a11.39,11.39,0,0,1-9.86,17.09H277.54V164a3.54,3.54,0,0,1-1.8,3.4c-4.32,2.34-14.42-4.22-14.85-4.5-12.19-8-27.51-7.82-42,.5-13.45,7.7-23.22,20.94-22.73,30.79.56,11.18,1.68,23.92,5.79,33.64,4.67,11,12.27,16.17,23.27,15.69,15-.65,30-7.85,40-13.77A8.42,8.42,0,0,1,277.91,237Z"/><path class="cls-2" d="M58.54,234.27C51.82,238.78,43,243.16,33,244.16,10.81,246.38,2,222,.85,201s17.71-41,34.31-38.74c7.82,1,16.38,6,23.25,11a8.36,8.36,0,0,0,13.28-6.78V90.91h76.43a8.72,8.72,0,0,0,7.93-12.37c-6-13-12.73-32.83-3.34-41.38,14.6-13.29,54-13.29,60.68,6.64C217.1,55,212.05,68.38,206.89,78a8.72,8.72,0,0,0,7.69,12.85H279.8v70c0,7.46-8.44,12.1-14.52,7.78-28.22-20-59,1.1-61.86,24.62-3.32,27.68,14.39,50.92,33.21,48.71,9.56-1.13,20.54-6.53,29-11.58a9.33,9.33,0,0,1,14.13,8v77.28H204.67a11.71,11.71,0,0,1-10.62-16.71c4.45-9.24,22.64-20.57,21.55-29.32-2.21-17.71-41.65-22.09-62.89-18.79-16.21,2.51-8.15,27.87,1.06,48.2a11.73,11.73,0,0,1-10.65,16.62H71.69v-74.5A8.39,8.39,0,0,0,58.54,234.27Z"/><path class="cls-3" d="M280.14,315.69H205a12.84,12.84,0,0,1-10.93-6,12.66,12.66,0,0,1-.71-12.3c1.9-4,6.21-8.27,10.37-12.43,5.72-5.73,11.64-11.65,11.07-16.25-.43-3.41-2.42-6.47-5.93-9.12-8-6-31.78-12.4-55.66-8.69a8.69,8.69,0,0,0-6.81,4.45c-3.69,6.84-.68,21.42,8.72,42.16a12.85,12.85,0,0,1-11.67,18.22H72a1.14,1.14,0,0,1-1.13-1.13V240.05a7.1,7.1,0,0,0-3.79-6.35,7.33,7.33,0,0,0-7.6.41c-8.68,5.83-17.46,9.22-26.11,10.09a23.83,23.83,0,0,1-18.57-5.63c-4-3.45-13.48-14.1-14.77-38.61-.6-11.27,4.53-23.35,13.39-31.52,6.84-6.31,14.93-9.38,22.2-8.41,6.75.9,14.75,4.66,23.76,11.19a7.23,7.23,0,0,0,11.49-5.86V89.82A1.14,1.14,0,0,1,72,88.68h76.43a7.58,7.58,0,0,0,6.9-10.76C148.62,63.3,142.62,44,152.28,35.23c9.25-8.42,28.43-11.9,43.67-7.92,9.77,2.55,16.46,7.89,18.84,15,3.88,11.63-1.43,25.52-6.57,35.13a7.58,7.58,0,0,0,6.69,11.17h65.23a1.14,1.14,0,0,1,1.13,1.13v70a10.56,10.56,0,0,1-5.75,9.4,10,10,0,0,1-10.57-.7c-11.95-8.48-25.39-10.12-37.84-4.6-12.07,5.35-20.8,16.51-22.23,28.44-1.81,15.09,2.83,30.25,12.12,39.56,5.88,5.89,12.92,8.7,19.83,7.88,9.65-1.13,20.87-6.84,28.59-11.43a10.47,10.47,0,0,1,15.85,9v77.28A1.14,1.14,0,0,1,280.14,315.69ZM167.58,247.61c14.86,0,32.8,2.69,42.67,10.13,4,3,6.3,6.61,6.81,10.65.71,5.7-5.61,12-11.72,18.13-4,4-8.19,8.19-9.93,11.81a10.38,10.38,0,0,0,.59,10.11,10.58,10.58,0,0,0,9,5h74V237.28a8.21,8.21,0,0,0-12.42-7C258.67,235,247.14,240.8,237.1,242c-7.61.9-15.32-2.13-21.71-8.53-9.76-9.79-14.65-25.67-12.76-41.43,1.52-12.71,10.77-24.58,23.56-30.24,13.21-5.86,27.44-4.14,40.08,4.82a7.75,7.75,0,0,0,8.2.53,8.28,8.28,0,0,0,4.53-7.38V90.92H214.91a9.85,9.85,0,0,1-8.69-14.51c4.93-9.22,10.05-22.48,6.42-33.34-2.13-6.4-8.26-11.22-17.26-13.57-14.57-3.8-32.83-.55-41.58,7.4-3.9,3.56-8.62,13.49,3.61,40.08a9.85,9.85,0,0,1-9,14H73.16v74.41a9.51,9.51,0,0,1-15.09,7.7c-8.58-6.22-16.44-9.94-22.73-10.78-6.6-.88-14,2-20.36,7.82C6.6,177.83,1.75,189.22,2.31,199.84c.86,16.4,6.09,30.23,14,37a21.59,21.59,0,0,0,16.87,5.09c8.26-.82,16.7-4.09,25.07-9.71h0a9.64,9.64,0,0,1,9.92-.53,9.32,9.32,0,0,1,5,8.35v73.37h70.3a10.52,10.52,0,0,0,8.88-4.83,10.65,10.65,0,0,0,.73-10.19c-9.84-21.71-12.75-36.57-8.65-44.16a10.91,10.91,0,0,1,8.45-5.62A98.15,98.15,0,0,1,167.58,247.61Z"/><path class="cls-4" d="M203.71,219.6s-1.19-7.32-4.33-7.32a20.94,20.94,0,0,0-6.91,1.64l-6.18,5.56s12.48,8.14,17.89,6.05c0,0,12.74,2.65,31-.73a42.28,42.28,0,0,1-1.31-12.52C223.94,215.48,213.56,220.59,203.71,219.6Z"/><path id="Leg" class="cls-5" d="M91.67,253.4l27.48,94.66,12.92,71.07h13L132.09,253.4Z"/><path id="Leg-2" class="cls-5" d="M79.33,253.4c1.92,49.17,1.16,76,.73,80.46S77.2,368.25,60.6,420.63H74.09c22-50.25,29.65-80.17,32.17-86.77s10-33.42,20.84-80.46Z"/><path id="Pant" class="cls-6" d="M91.09,253.4q10.71,48.86,37.07,156h19c1.4-73.3-4.56-121.55-14.88-156Z"/><path id="Pant-2" class="cls-7" d="M79.23,253.4c1.88,49.17-3,97.62-18.05,156.75H81.41c22-49.5,37.81-97.71,48.59-156.75Z"/><g id="Left_Shoe" data-name="Left Shoe"><path id="Shoe" class="cls-8" d="M58.68,430.38l.7-11.36a.75.75,0,0,1,.68-.7l15.74-1.44,27,10a1.5,1.5,0,0,1,.92,1.81l-1.11,3.92H60.17Z"/></g><g id="Right_Shoe" data-name="Right Shoe"><path id="Shoe-2" class="cls-8" d="M129.17,430.38l.71-11.36a.74.74,0,0,1,.68-.7l15.73-1.44,27,10a1.49,1.49,0,0,1,.92,1.81l-1.11,3.92H130.66Z"/></g><path class="cls-9" d="M137.31,158.31l4.53,32.6a78.11,78.11,0,0,0,8.55,2.43c1.7-5.46,5.43-12.16,8.49-17.14C147.64,172.23,137.31,158.31,137.31,158.31Z"/><path class="cls-9" d="M135,156.14c-.94-.73-1.82-1.4-2.68-2l-1.45,3c1,9.6,10,25.41,12.91,30.22"/><path class="cls-10" d="M72.21,268.3a2.67,2.67,0,0,1-1.75-2.24c-1.25-12.14,6.09-87.38,44.32-118.33,0,0,2.53-6.16,20.21,8.37,12.34,10.13,8.38,28.88,4.06,49.26-5.22,24.67-1,44.84,3.07,60a2.1,2.1,0,0,1-1.29,2.52C126.83,273.06,86.1,273.23,72.21,268.3Z"/><path class="cls-5" d="M196.87,162.16c-15.41,16.63-27.88,17.61-38,14-3.06,5-6.79,11.68-8.49,17.14,41.14,9.07,50.83-28.76,50.83-28.76Z"/><path class="cls-5" d="M121.93,199.61s23.5,29.59,56.27,25.5a7.46,7.46,0,0,1,5.66,1.62l7.85,6.46a8,8,0,0,0,11-.78,16.88,16.88,0,0,0,3.84-6.12l-15.81-10.51,1.71-1.86s-8.27-2.44-11.71,3.14c0,0-17.4,3.38-38.33-31.9C142.43,185.16,128,193.08,121.93,199.61Z"/><path class="cls-5" d="M227.22,161.45c.39.86.08,2.91-2.51,2.94-6.45.07-16.38,1.1-18.41,2.27-4.15,2.39-16.2,16.9-16.2,16.9l4.19-18.74a34.91,34.91,0,0,1,5.25-4.85c3.7-2.52,4.26-9.73,4.89-13.39,2.58.44,2.74,2.19,3,4s.63,3.93,4.13,4.47c4.48.7,9,.07,12.36,2.32A9.5,9.5,0,0,1,227.22,161.45Z"/><path id="Leg-2-2" data-name="Leg" class="cls-9" d="M272.92,245.79l-22,172.76H266l20.71-73.3,28.39-99.46Z"/><path id="Leg-2-3" data-name="Leg-2" class="cls-10" d="M272.84,245.79c13.89,49,23.11,77,26.1,83.88s17.31,36.51,43,88.89h15.65q-30.24-81.9-31.28-88.89c-.69-4.66-2.92-32.61-3.58-83.88Z"/><path class="cls-5" d="M130.31,124.56c0,1.07-15.28,22.76-15.28,22.76s2.74,5.4,15.83,9.78l11.29-23.22Z"/><path class="cls-5" d="M142.33,112.14s6.55,12.11,7.5,18.6c.81,5.48,1.49,14.13-6.19,14.32a20.91,20.91,0,0,1-18.72-10.75s-5.41-10.06-4.2-14.17S142.33,112.14,142.33,112.14Z"/><path class="cls-8" d="M127.51,129.62l.43-.19a1,1,0,0,0,.51-1.43c-1.07-2.07-3.15-6.79-.46-7.9,3.47-1.42,17.2-4.22,20.16-9.09,2.85-4.68.32-10.73-3.47-12.44a.51.51,0,0,0-.68.22l-.32.6a.52.52,0,0,1-1-.1h0a.51.51,0,0,0-.92-.13c-.91,1.45-3.37,3.82-9.95,5-9.34,1.72-15.52,5.5-15.67,12a.52.52,0,0,1-.8.43c-.69-.43-1.79-.62-3.26.62-2.57,2.16-1.52,7.75,4.1,12.36a.51.51,0,0,1,0,.82c-1,.66-2.54,2.24,1.4,4.35s7.12,2,8.29,1.8a.5.5,0,0,0,.41-.61l-1.25-5.68a.51.51,0,0,1,.5-.62Z"/><path class="cls-5" d="M127.75,130.81s-2.08-8-5.65-5.73,1.86,8.93,4.73,9.23Z"/><g id="Head_Front" data-name="Head Front"><g id="Head"><path id="Head-2" class="cls-4" d="M289.32,170.67l.6-21c-4.35,3.33-8.79,5.21-11,4.9-5.56-.79-8.27-20.45-5-28.69s24.4-14,27.21,1.23c1,5.31-.73,10.33-3.62,14.6l9.08,27Z"/></g><path id="hair" class="cls-8" d="M272.45,123.9a1.54,1.54,0,0,0-.27,1.23,2.54,2.54,0,0,0,.69.87,5.11,5.11,0,0,0,2.15,1.06c2.93.85,6.07.66,9,1.73a9.93,9.93,0,0,1,5.51,5.82c1.69-1.18,3.81-2.47,5.94-1.79,1.72.55,2.42,2.68,2.41,4.39a6.23,6.23,0,0,1-1.73,4.35,3.73,3.73,0,0,0-.59.67c-.12.21,0,.34.1.53a8.85,8.85,0,0,0,1.43,1.44,5,5,0,0,0,4.77.47,15.72,15.72,0,0,0,2.37-1.06,14.44,14.44,0,0,0,2.25-1.38,7,7,0,0,0,2.59-4.84,21.21,21.21,0,0,0-.4-6.41,26.05,26.05,0,0,0-2-6.32,15.69,15.69,0,0,0-3.46-5,10.71,10.71,0,0,0,5.13-3.7c1.37-2,2.51-7,2.36-8.87a10.83,10.83,0,0,0-1.1-4.4,6.64,6.64,0,0,0-4.17-3,4.69,4.69,0,0,1-.54-.06c-.19,0-.21-.14-.3-.31a4.25,4.25,0,0,0-.9-1.08,5.91,5.91,0,0,0-2.72-1.34,7.05,7.05,0,0,0-3.1,0,5.18,5.18,0,0,0-2.56,1.35c-.27.29-.45.57-.86.51s-.8-.21-1.22-.25a6.6,6.6,0,0,0-2.82.32,5.17,5.17,0,0,0-2.29,1.59,7.68,7.68,0,0,0-1.25,2.51,19.17,19.17,0,0,0-1.4,5.92A12.5,12.5,0,0,0,287,115a22.85,22.85,0,0,0-7.15,1.61C277.55,117.6,273.43,121.89,272.45,123.9Z"/></g><path id="Shoe-2-2" data-name="Shoe" class="cls-6" d="M351.13,432.63v-1.57L341,432.63H311.2V429.5s18.84-5.08,30.54-13.29h16.44l.78,16.42Z"/><path id="Shoe-2-3" data-name="Shoe-2" class="cls-6" d="M260.31,432.63v-1.57l-10.18,1.57H220.38V429.5s18.84-5.08,30.53-13.29h16.45l.78,16.42Z"/><path id="Coat_Back" data-name="Coat Back" class="cls-8" d="M237.15,241.46l-7.37-33.74c36.69-7.94,39-22.93,62.68-43.54l14.16,4.54C291.14,201.28,278.45,224.53,237.15,241.46Z"/><path id="Shirt" class="cls-11" d="M305.15,161.22,287,163.93c0,35.62-21,86.57-21,86.57H326.3C323.48,212.52,319.45,184.21,305.15,161.22Z"/><path class="cls-6" d="M290.4,324.41l4.21,26.19a8.62,8.62,0,0,0,9.58,7.17l63-7.68a6.23,6.23,0,0,0,5.48-6c.14-6.76-.13-18.81-3-29.78Z"/><path class="cls-6" d="M306.42,303l-.07-2.05a1.57,1.57,0,0,1,1.06-1.06c1.93-.56,6.72-1.74,9.29-.28l.65,2.31Z"/><path class="cls-8" d="M312.3,300.22a2.86,2.86,0,0,1-1.36.17,1.23,1.23,0,0,1-1.09-1.07L309,293l3.23-.41.81,6.34A1.24,1.24,0,0,1,312.3,300.22Z"/><path class="cls-6" d="M337.72,299l-.07-2.05a1.59,1.59,0,0,1,1.07-1.07c1.92-.56,6.72-1.73,9.29-.28l.65,2.31Z"/><path class="cls-8" d="M343.6,296.21a2.7,2.7,0,0,1-1.35.17,1.22,1.22,0,0,1-1.09-1.06l-.9-7,3.23-.42.9,7A1.23,1.23,0,0,1,343.6,296.21Z"/><path class="cls-6" d="M308.91,294.57l34.61-5.6a1.69,1.69,0,0,0,1.43-1.58,14.24,14.24,0,0,0-.46-4.42,4,4,0,0,0-4.32-2.9c-6.5.68-23,2.8-31.65,7.56a3.22,3.22,0,0,0-1.64,2.45,7.76,7.76,0,0,0,.37,3.54A1.52,1.52,0,0,0,308.91,294.57Z"/><path class="cls-7" d="M290.19,304.23c11.21-1.58,59.73-8.31,74.06-8.41a2.89,2.89,0,0,1,2.75,1.91,95.74,95.74,0,0,1,5,20.91,2.54,2.54,0,0,1-1.76,2.66l-31.43,10.22L327.4,333l-35.2-2.43a2.71,2.71,0,0,1-2.48-2.21c-.78-4.34-2.44-14.55-2.11-21.29A3,3,0,0,1,290.19,304.23Z"/><path class="cls-8" d="M338.38,336.46l-10,1.28a2.6,2.6,0,0,1-2.86-1.95l-2.4-9.49a2.61,2.61,0,0,1,2.21-3.22l12-1.54a2.61,2.61,0,0,1,3,2.48l.37,9.75A2.62,2.62,0,0,1,338.38,336.46Z"/><path class="cls-7" d="M336.92,334.84l-7.63,1a2,2,0,0,1-2.18-1.48l-1.82-7.23a2,2,0,0,1,1.67-2.45l9.17-1.17a2,2,0,0,1,2.24,1.88l.29,7.43A2,2,0,0,1,336.92,334.84Z"/><path class="cls-4" d="M331,258A78.31,78.31,0,0,1,333,280.78a2.71,2.71,0,0,1-2.5,2.43l-5.35.35c-2,.11-4.22-1.15-5.7-2.21a.89.89,0,0,0-1.31,1.13,10.66,10.66,0,0,0,3.25,3.5c.75.58,3.26,1.6,3.09,2.73a2.1,2.1,0,0,1-.5.94,11.4,11.4,0,0,1-5.59,3.21,1.59,1.59,0,0,0-.73.37c-.05,1.35,4.1,2.84,5.17,3.2a11.89,11.89,0,0,0,5,.58c4.17-.44,8-3.32,10.27-6.79,6-9.28,5.72-21,6.86-29.53C339.38,255.1,334.33,257,331,258Z"/><path id="Coat_Front" data-name="Coat Front" class="cls-6" d="M324.32,276.35q.36-4.92.46-9.71H285.31s7.45-69.62,8.15-92.59l4.39-12.56s4.36-.2,6.49-.27h1.21s41.56,40.72,48.16,115.13Z"/><path id="Shade" class="cls-12" d="M313.78,267c2.13-3.58,3.93-9.32,5.36-17.08a210.87,210.87,0,0,0,2.66-21.69,200.69,200.69,0,0,1,3,38.77Z"/><path id="Light" class="cls-12" d="M296.55,242.67v-9.06L316,242.67Z"/></svg>