<svg id="Ebene_1" data-name="Ebene 1" xmlns="http://www.w3.org/2000/svg" viewBox="0 0 390.53 427.88"><defs><style>.cls-1{fill:#f2f2f2;isolation:isolate;opacity:0.55;}.cls-2{fill:#b18b67;}.cls-3{fill:#222045;}.cls-4{fill:#2e3676;}.cls-5{fill:#5c63ab;}.cls-6{fill:#2b4645;}.cls-7{fill:#c1d0d0;}.cls-8{fill:#516768;}.cls-18,.cls-9{fill:#aac0be;}.cls-15,.cls-9{stroke:#aac0be;}.cls-10,.cls-11,.cls-12,.cls-13,.cls-14,.cls-15,.cls-16,.cls-17,.cls-19,.cls-20{fill:none;}.cls-10,.cls-12,.cls-13,.cls-14,.cls-16,.cls-17,.cls-19,.cls-20{stroke:#c1d0d0;}.cls-10,.cls-13,.cls-15,.cls-16,.cls-19{stroke-linecap:round;}.cls-10,.cls-12{stroke-width:4px;}.cls-13,.cls-14{stroke-width:4px;}.cls-15{stroke-linejoin:round;stroke-width:3px;}.cls-16,.cls-17{stroke-miterlimit:4;stroke-width:4px;}.cls-19,.cls-20{stroke-miterlimit:4;stroke-width:4px;}</style></defs><g id="Gruppe_234" data-name="Gruppe 234"><path id="Background_Shape" data-name="Background Shape" class="cls-1" d="M5.19,359.34C18.12,311.1,112.25,345.7,176.31,335s143.51-75.88,190.41-37.93S355.3,414.71,240.86,425.59-7.73,407.58,5.19,359.34Z"/><g id="Gruppe_217" data-name="Gruppe 217"><g id="humaaan-8"><g id="Head_Front" data-name="Head Front"><g id="Head"><path id="Head-2" class="cls-2" d="M197,105.81l-7-32.55c3.9-4.57,6.54-10.17,6.1-16.45-1.27-18.09-26.46-14.1-31.36-5s-4.32,32.28,2,33.92c2.53.65,7.9-1,13.38-4.25l-3.43,24.31Z"/></g><path id="hair" class="cls-3" d="M156.81,39.17a4.4,4.4,0,0,1,3.08-3.11,4.3,4.3,0,0,1,1.13-.12c.13,0,.17.05.24,0a1.13,1.13,0,0,0,.06-.32,6.65,6.65,0,0,1,.23-.76,6.32,6.32,0,0,1,1.5-2.23,7.55,7.55,0,0,1,4.54-2.14,6.46,6.46,0,0,1,2.72.37,12,12,0,0,1,1.33.56c.13.07.55.39.68.36s.43-.37.54-.46a8,8,0,0,1,5-1.53c2,0,4,.12,5.66,1.35a11.48,11.48,0,0,1,1,.85l.49.49c.1.1.19.21.28.32s.12.24.34.11a4.18,4.18,0,0,1,2.7-.6,5.83,5.83,0,0,1,1.63.46,3.93,3.93,0,0,0,.77.38c.19,0,.59-.28.78-.35a6.47,6.47,0,0,1,3.26-.3A8.43,8.43,0,0,1,198,33.7a4.5,4.5,0,0,1,1.18,1.08,6,6,0,0,0,.42.57c.09.1.28.21.33.35a6.78,6.78,0,0,1,1.35-.6,3.32,3.32,0,0,1,1.9.07,7.51,7.51,0,0,1,3,2.13,8.36,8.36,0,0,1,1.11,1.49,8.56,8.56,0,0,1,.42.79,3,3,0,0,0,.18.41c.1.16.18.16.37.22a6,6,0,0,1,2.5,1.67,5.84,5.84,0,0,1,1.29,2.74,1.27,1.27,0,0,0,0,.34c.05,0,.24,0,.31,0,.26,0,.51.08.75.13a6.13,6.13,0,0,1,1.32.48,6.86,6.86,0,0,1,3.38,4,8.17,8.17,0,0,1-.13,5.6,4.54,4.54,0,0,1-.42.82c-.1.16-.13.16-.06.33s.2.37.29.55a8,8,0,0,1,.6,1.87,9,9,0,0,1,.1,3.24,4.91,4.91,0,0,1-.5,1.42,5.47,5.47,0,0,1-.44.63l-.27.29c-.07.05-.12.11-.18.16s-.13,0-.08.24.24.6.38.89.23.6.32.91a12.55,12.55,0,0,1,.47,1.9,5.92,5.92,0,0,1-.42,3.69,3.59,3.59,0,0,1-1.05,1.24,3.2,3.2,0,0,1-.68.42c-.13.06-.29.08-.34.2s0,.39.05.53a8.91,8.91,0,0,1-.1,3.81,5.29,5.29,0,0,1-2.09,2.8,6.49,6.49,0,0,1-6.49.19,6.68,6.68,0,0,1-1.45-1c-1.12,1.5-3.4,1.45-5,1a7.27,7.27,0,0,1-4.59-3.79,3.06,3.06,0,0,1-4.32.06,3,3,0,0,1-.53-.7,4,4,0,0,1-.41-1.33c0-.24,0-.49,0-.73a3.81,3.81,0,0,0-.35-.9,4.84,4.84,0,0,1-.38-1.8c0-.32,0-.64.07-1a3.47,3.47,0,0,0-.1-.85,4,4,0,0,0,1.64-.2,3.26,3.26,0,0,0,1.27-.89,7.42,7.42,0,0,0,1.6-3c.72-2.36.43-5.2-1.95-6.49-1.11-.6-4.43-.6-5.75-.3s-2.95,3.37-3,3.66,0,.4-.19.52c-.36.26-.95-.2-1.22-.42A4.63,4.63,0,0,1,181,61.85a17.15,17.15,0,0,1-1.46-3.58c-.27-1-.45-1.94-.8-2.87A4.41,4.41,0,0,0,177,53.12a15.18,15.18,0,0,0-3.05-1.22,7.68,7.68,0,0,1-2.81-1.55,3.09,3.09,0,0,1-.48-.54c-.11-.15-.22-.45-.39-.54s-.64.24-.87.38a10.15,10.15,0,0,0-2.8,2.78,17.35,17.35,0,0,0-1.86,3.31,9.17,9.17,0,0,1-1.25,2.76,5.26,5.26,0,0,1-3.14.24,4.07,4.07,0,0,1-1.72-1.49,2.32,2.32,0,0,1-.19-1.51c.06-.3.18-.59.25-.89a2.63,2.63,0,0,1,.23-.72,1.79,1.79,0,0,1,1.11-.88,5.3,5.3,0,0,1-1.2-1.62,6.83,6.83,0,0,1-.62-2.11,2.58,2.58,0,0,1,.34-1.65,4.35,4.35,0,0,1,1.4-1.16A9.18,9.18,0,0,1,158,44.58,6.69,6.69,0,0,1,156.81,39.17Z"/></g><g id="Bottom_Skinny_Jeans_1" data-name="Bottom Skinny Jeans 1"><path id="Leg" class="cls-4" d="M206,176,165,283.48l-28.74,79.25H119.88L159.38,176Z"/><path id="Leg-2" class="cls-5" d="M222.65,176c.45,36.9.13,86.57,1.17,88.87s64.6,52.41,64.6,52.41L280,331.46s-75.46-48.23-79.32-54.65S177.41,211.25,167.33,176Z"/><g id="Right_Shoe" data-name="Right Shoe"><path id="Shoe" class="cls-3" d="M138.68,378l-.85-18.39H119.92c-12.74,9.19-33.26,14.88-33.26,14.88v3.5h32.4l11.09-1.74V378Z"/></g></g><g id="Body_Long_Sleeve_1" data-name="Body Long Sleeve 1"><path id="Skin" class="cls-2" d="M242,234.54c-3.75-1.75-5.4,0-6.92,1.65s-2.71,3.19-5.5,1.94c1.77-4,5.91-11.35,4-16.2-1.3-3.23-17.67-56-17.67-56l17.67-.07s8.44,49,10.92,54c1.21,2.46,10.17,9.92,16.4,14.18,2.5,1.71,1.46,3.9.52,4.49a11,11,0,0,1-5.86,1.82C250.77,240.32,246.8,236.77,242,234.54ZM102.46,202c-1.34-2.21,1.57-4.17.91-5.81s-5.74-1.47-10.55-1.1-3.4-1.77-2.25-2.83A72.65,72.65,0,0,1,108.91,185l27-19.8,6,14.73L115.13,191q-9.7,11.4-12.08,11.41A.65.65,0,0,1,102.46,202Z"/><path id="Coat_Back" data-name="Coat Back" class="cls-6" d="M185.43,91.74l-7.3-1.26c-27.13,23.42-38.27,68.41-71.52,92.24l8,9.91C172.28,185.5,186.58,130.63,185.43,91.74Z"/><path id="Shirt" class="cls-7" d="M217.14,183.56H152.45c-3,0-2.4-4.27-2-6.42,4.94-24.85,24.19-51.63,24.19-87l18.66-2.93C208.75,112,214.09,142.57,217.14,183.56Z"/><path id="Coat_Front" data-name="Coat Front" class="cls-8" d="M243.88,219.06c1.49-48.24-16.78-85.37-32.07-107.75a9.81,9.81,0,0,0,8.4-5.16c6.82-12.3,4.35-19.07-2.94-21.3s-13.78,2.36-25.4,2.36a9.15,9.15,0,0,0-1.38.1l-6.19.36s-25.15,85.16-13.87,113.64h51.13A163.72,163.72,0,0,0,230,219.06Z"/><path id="Shade" d="M202.9,201.31H222c-3.5-8.42-7.38-18.81-11.5-30.89-1.71,14.89-4.27,25.28-7.61,30.89Z"/></g></g><path id="Shoe-2" class="cls-3" d="M301.87,327.16l-13.58-10.33-11,13.06c-1.26,14.76-9.77,33.11-9.77,33.11l2.48,2.08,19.82-23.62,5.54-9.12,1.24,1Z"/></g><g id="Gruppe_218" data-name="Gruppe 218"><path id="Icon_material-phone" data-name="Icon material-phone" class="cls-9" d="M307.15,35.15a22.25,22.25,0,0,0,9.67,9.67l3.23-3.23a1.46,1.46,0,0,1,1.5-.35,16.66,16.66,0,0,0,5.24.84,1.46,1.46,0,0,1,1.46,1.46v5.12a1.46,1.46,0,0,1-1.46,1.47,25,25,0,0,1-25-24.93h0a1.48,1.48,0,0,1,1.47-1.47h5.13a1.47,1.47,0,0,1,1.47,1.47,16.92,16.92,0,0,0,.83,5.23,1.48,1.48,0,0,1-.36,1.5Z"/><line id="Linie_28" data-name="Linie 28" class="cls-10" x1="291.11" y1="58.83" x2="256.22" y2="92.91"/><g id="Ellipse_20" data-name="Ellipse 20"><ellipse class="cls-11" cx="316.08" cy="35" rx="35.5" ry="35"/><ellipse class="cls-12" cx="316.08" cy="35" rx="33.5" ry="33"/></g></g><g id="Gruppe_214" data-name="Gruppe 214"><g id="Gruppe_192" data-name="Gruppe 192"><line id="Linie_29" data-name="Linie 29" class="cls-13" x1="321.4" y1="164.69" x2="272.66" y2="166.67"/><g id="Ellipse_21" data-name="Ellipse 21"><circle class="cls-11" cx="355.23" cy="163.49" r="35.3"/><circle class="cls-14" cx="355.23" cy="163.49" r="33.3"/></g></g><g id="Icon_feather-mail" data-name="Icon feather-mail"><path id="Pfad_91" data-name="Pfad 91" class="cls-15" d="M344.64,153.68h20.19a2.52,2.52,0,0,1,2.52,2.52v15.14a2.52,2.52,0,0,1-2.52,2.52H344.64a2.52,2.52,0,0,1-2.52-2.52V156.2A2.52,2.52,0,0,1,344.64,153.68Z"/><path id="Pfad_92" data-name="Pfad 92" class="cls-15" d="M367.35,156.2,354.74,165l-12.62-8.83"/></g></g><g id="Gruppe_216" data-name="Gruppe 216"><g id="Gruppe_193" data-name="Gruppe 193"><line id="Linie_29-2" data-name="Linie 29-2" class="cls-16" x1="64.24" y1="259.56" x2="106.62" y2="235.43"/><g id="Ellipse_21-2" data-name="Ellipse 21-2"><circle class="cls-11" cx="35.3" cy="276.58" r="35.29"/><circle class="cls-17" cx="35.3" cy="276.58" r="33.29"/></g></g><path id="Icon_material-location-on" data-name="Icon material-location-on" class="cls-18" d="M34.86,262.16a9.93,9.93,0,0,0-9.94,9.93h0c0,7.46,9.94,18.47,9.94,18.47s9.94-11,9.94-18.47a9.94,9.94,0,0,0-9.92-9.94Zm0,13.5a3.56,3.56,0,1,1,3.55-3.56A3.55,3.55,0,0,1,34.86,275.66Z"/></g><g id="Gruppe_215" data-name="Gruppe 215"><g id="Gruppe_194" data-name="Gruppe 194"><line id="Linie_29-3" data-name="Linie 29-3" class="cls-19" x1="71.64" y1="98.18" x2="117.4" y2="115.13"/><g id="Ellipse_21-3" data-name="Ellipse 21-3"><circle class="cls-11" cx="40.21" cy="86.58" r="35.32"/><circle class="cls-20" cx="40.21" cy="86.58" r="33.32"/></g></g><path id="Icon_material-person" data-name="Icon material-person" class="cls-18" d="M39.79,85a6.44,6.44,0,1,0-6.43-6.44A6.44,6.44,0,0,0,39.79,85Zm0,3.22c-4.29,0-12.87,2.15-12.87,6.43V97.9H52.67V94.68C52.67,90.4,44.09,88.25,39.79,88.25Z"/></g></g></svg>