<svg id="Ebene_1" data-name="Ebene 1" xmlns="http://www.w3.org/2000/svg" viewBox="0 0 191.58 219.53"><defs><style>.cls-1{fill:#c1d0d0;}</style></defs><g id="Gruppe_17" data-name="Gruppe 17"><g id="Gruppe_179" data-name="Gruppe 179"><path id="Pfad_109" data-name="Pfad 109" class="cls-1" d="M12.7,170.49V12.7H179.13V170.49L95.79,205.81ZM0,0V178.88l95.79,40.65,95.79-40.65V0Z"/></g><path id="Icon_open-magnifying-glass" data-name="Icon open-magnifying-glass" class="cls-1" d="M90.16,73.09a31.87,31.87,0,0,0,0,63.74,31.47,31.47,0,0,0,15.11-3.74,9.56,9.56,0,0,0,1.19,1.19l9.1,9.1A9.29,9.29,0,1,0,129.45,131a9.45,9.45,0,0,0-.78-.77l-9.1-9.1a9.26,9.26,0,0,0-1.46-1.19,31.39,31.39,0,0,0,4-15.11A31.91,31.91,0,0,0,90.25,73Zm0,9.11a22.65,22.65,0,0,1,22.76,22.54V105a22.81,22.81,0,0,1-6,15.66l-.27.27a8.84,8.84,0,0,0-1.18,1.19A22.8,22.8,0,1,1,90.07,82.29Z"/></g></svg>