<svg id="Ebene_1" data-name="Ebene 1" xmlns="http://www.w3.org/2000/svg" viewBox="0 0 239.07 221.56"><defs><style>.cls-1{isolation:isolate;}.cls-2{fill:#eb5948;}.cls-3{fill:none;}</style></defs><g id="Gruppe_118" data-name="Gruppe 118"><g id="_" data-name=" " class="cls-1"><g class="cls-1"><path class="cls-2" d="M119.83,186.91a7.05,7.05,0,0,1-7-6.9,6.92,6.92,0,0,1,7-7,6.48,6.48,0,0,1,4.73,2,6.83,6.83,0,0,1,2,5,6.72,6.72,0,0,1-2,4.8A6.38,6.38,0,0,1,119.83,186.91Zm-.15-25.65a4.39,4.39,0,0,1-2.7-.9,3,3,0,0,1-1.2-2.55q0-12.3-.45-25.58t-.9-26.47q-.45-13.2-.45-25.5a5.58,5.58,0,0,1,1.65-4.35,5.8,5.8,0,0,1,4.05-1.5,5.89,5.89,0,0,1,4,1.5,5.45,5.45,0,0,1,1.72,4.35q0,12.3-.37,25.5t-.9,26.47q-.52,13.28-.53,25.58a2.89,2.89,0,0,1-1.35,2.55A4.65,4.65,0,0,1,119.68,161.26Z"/></g></g><g id="Polygon_1" data-name="Polygon 1"><path class="cls-3" d="M117.8,1a2,2,0,0,1,2.74-.73,2,2,0,0,1,.73.73L238.8,204a2,2,0,0,1-.74,2.73,1.91,1.91,0,0,1-1,.27H2a2,2,0,0,1-2-2,2.05,2.05,0,0,1,.27-1Z"/><path class="cls-2" d="M119.53,8,7.21,202H231.86L119.53,8m0-8a2,2,0,0,1,1.73,1L238.8,204a2,2,0,0,1-1.73,3H2a2,2,0,0,1-1.73-3L117.8,1A2,2,0,0,1,119.53,0Z"/></g></g></svg>