<svg id="Ebene_1" data-name="Ebene 1" xmlns="http://www.w3.org/2000/svg" viewBox="0 0 450.91 435.99"><defs><style>.cls-1{fill:#ece9eb;}.cls-2,.cls-5,.cls-6{fill:none;}.cls-2{stroke:#385757;stroke-width:20px;}.cls-3{fill:#385757;}.cls-4{fill:#c1d0d0;}.cls-5,.cls-6{stroke:#94b3b2;stroke-linecap:round;}.cls-5{stroke-width:5px;}.cls-6{stroke-width:5px;}</style></defs><g id="Gruppe_191" data-name="Gruppe 191"><g id="Gruppe_190" data-name="Gruppe 190"><g id="Ellipse_1" data-name="Ellipse 1"><circle class="cls-1" cx="167.11" cy="217.9" r="167.11"/><circle class="cls-2" cx="167.11" cy="217.9" r="155.82"/></g><g id="Ellipse_17" data-name="Ellipse 17"><ellipse class="cls-1" cx="167.11" cy="217.9" rx="118.56" ry="119.69"/><ellipse class="cls-2" cx="167.11" cy="217.9" rx="107.26" ry="108.39"/></g><g id="Ellipse_18" data-name="Ellipse 18"><ellipse class="cls-1" cx="167.11" cy="217.9" rx="71.13" ry="72.26"/><ellipse class="cls-2" cx="167.11" cy="217.9" rx="59.84" ry="60.97"/></g><circle id="Ellipse_19" data-name="Ellipse 19" class="cls-3" cx="167.11" cy="217.9" r="25.97"/></g><g id="Gruppe_187" data-name="Gruppe 187"><path id="Pfad_205" data-name="Pfad 205" class="cls-4" d="M356.82,0,330.25,26.57l8.19,20.27L358.71,55l26.57-26.58-.28-.27-19.87-8L357.1.28Z"/><line id="Linie_27" data-name="Linie 27" class="cls-5" x1="167.24" y1="217.95" x2="363.49" y2="21.69"/></g><g id="Gruppe_188" data-name="Gruppe 188"><path id="Pfad_205-2" data-name="Pfad 205-2" class="cls-4" d="M440.49,124l-36.29,9.73-3.05,21.64,13.46,17.23,36.3-9.73-.1-.38-13.2-16.89,3-21.22Z"/><line id="Linie_27-2" data-name="Linie 27-2" class="cls-6" x1="167.33" y1="217.95" x2="435.42" y2="146.11"/></g><g id="Gruppe_189" data-name="Gruppe 189"><path id="Pfad_205-3" data-name="Pfad 205-3" class="cls-4" d="M385.28,407.53,358.71,381l-20.27,8.19-8.19,20.27L356.83,436l.27-.28,8-19.87,19.87-8Z"/><line id="Linie_27-3" data-name="Linie 27-3" class="cls-5" x1="167.33" y1="217.95" x2="363.58" y2="414.2"/></g></g></svg>