<?xml version="1.0" encoding="utf-8"?>
<!-- Generator: Adobe Illustrator 26.3.1, SVG Export Plug-In . SVG Version: 6.00 Build 0)  -->
<svg version="1.1" id="Ebene_1" xmlns="http://www.w3.org/2000/svg" xmlns:xlink="http://www.w3.org/1999/xlink" x="0px" y="0px"
	 viewBox="0 0 447.4 435.2" style="enable-background:new 0 0 447.4 435.2;" xml:space="preserve">
<style type="text/css">
	.st0{fill:none;stroke:#4B6868;stroke-width:35;stroke-linecap:round;}
	.st1{fill:#ECE9EB;}
	.st2{fill:none;stroke:#ECE9EB;stroke-width:15;}
	.st3{enable-background:new    ;}
	.st4{fill:#EB5948;}
	.st5{fill:none;}
	.st6{clip-path:url(#SVGID_00000026854661780598417020000011377830777059347377_);}
	.st7{clip-path:url(#SVGID_00000093141647057150874430000000106886382106461322_);}
	.st8{fill:#FFFFFF;}
	.st9{fill:#455767;}
	.st10{fill:#AAC0BE;}
	.st11{clip-path:url(#SVGID_00000166650918721819387680000015568882142616358797_);}
	.st12{clip-path:url(#SVGID_00000063634230218739200960000002152247666426625956_);}
	.st13{fill:none;stroke:#4B6868;stroke-width:15;}
	.st14{clip-path:url(#SVGID_00000028295127478881509250000003923457350898640548_);}
	.st15{fill:#94B3B2;}
	.st16{opacity:0.46;fill:#ECE9EB;}
	.st17{fill:none;stroke:#84A5A3;stroke-width:3;stroke-linecap:round;}
	.st18{fill:#2E3676;}
	.st19{fill:#D4A181;}
	.st20{fill:#222045;}
	.st21{fill:#385757;}
	.st22{fill:#4B6868;}
	.st23{fill:#5C63AB;}
	.st24{opacity:0.23;fill:#010202;}
	.st25{opacity:0.45;fill:#ECE9EB;}
	.st26{fill:#C1D0D0;}
	.st27{fill:#FDFDFD;}
	.st28{fill:#794931;}
	.st29{fill:#BB8B73;}
	.st30{fill:#DDE3E9;}
	.st31{opacity:0.35;fill:#010202;}
	.st32{fill:#E4EAEA;}
	.st33{fill:#AAC0BE;stroke:#4B6868;stroke-width:4;}
	.st34{clip-path:url(#SVGID_00000056403519464864290540000014593856173117784706_);}
	.st35{clip-path:url(#SVGID_00000116931696460086146530000017125235651228487840_);}
	.st36{fill:none;stroke:#385757;stroke-width:20;}
	.st37{fill:none;stroke:#94B3B2;stroke-width:5;stroke-linecap:round;}
	.st38{opacity:0.545;fill:#F2F2F2;enable-background:new    ;}
	.st39{fill:#B18B67;}
	.st40{fill:#2B4645;}
	.st41{fill:#516768;}
	.st42{fill:#010202;}
	.st43{fill:#AAC0BE;stroke:#AAC0BE;}
	.st44{fill:none;stroke:#C1D0D0;stroke-width:4;stroke-linecap:round;}
	.st45{fill:none;stroke:#C1D0D0;stroke-width:4;}
	.st46{fill:none;stroke:#AAC0BE;stroke-width:3;stroke-linecap:round;stroke-linejoin:round;}
	.st47{fill:none;stroke:#C1D0D0;stroke-width:3.9994;stroke-linecap:round;stroke-miterlimit:3.9994;}
	.st48{fill:none;stroke:#C1D0D0;stroke-width:3.9994;stroke-miterlimit:3.9994;}
	.st49{fill:none;stroke:#C1D0D0;stroke-width:4.0021;stroke-linecap:round;stroke-miterlimit:4.0021;}
	.st50{fill:none;stroke:#C1D0D0;stroke-width:4.0021;stroke-miterlimit:4.0021;}
	.st51{opacity:0.346;}
	.st52{fill:#F2F2F2;}
	.st53{clip-path:url(#SVGID_00000098193193562231330910000016284907869380086687_);}
	.st54{fill:#E4E3E3;}
	.st55{fill:#EBE9EB;}
	.st56{fill:none;stroke:#516768;stroke-width:5;stroke-linecap:round;stroke-linejoin:round;}
	.st57{fill:none;stroke:#94B3B2;stroke-width:12;stroke-linecap:round;stroke-linejoin:round;}
	.st58{fill:none;stroke:#EB5948;stroke-width:12;stroke-linecap:round;}
	.st59{clip-path:url(#SVGID_00000112629112272422253310000010847038670899246982_);fill:#AABFBD;}
	.st60{clip-path:url(#SVGID_00000112629112272422253310000010847038670899246982_);fill:#94B4B3;}
	.st61{fill:#F7F5F6;}
	.st62{fill:#85A5A4;}
	.st63{fill:#AABFBD;}
	.st64{fill:#94B4B3;}
	.st65{fill:#2C3676;}
	.st66{fill:#D5A282;}
	.st67{fill:#202144;}
	.st68{fill:#EDEAEB;}
	.st69{fill:#395858;}
	.st70{fill:#4C696A;}
	.st71{fill:#5C64AB;}
	.st72{fill:#494E80;}
	.st73{fill:#F6F4F5;}
</style>
<g>
	<path id="Rechteck_201_00000046322114664010456800000004218749145587561643_" class="st10" d="M16.4,136.5h358.7
		c9.1,0,16.4,7.4,16.4,16.4l-13.7,221.9c0,9.1-7.4,16.4-16.4,16.4h-345c-9.1,0-16.4-7.4-16.4-16.4V152.9
		C0,143.9,7.4,136.5,16.4,136.5z"/>
	<path id="Rechteck_202_00000101811005401989012180000012798459096173084560_" class="st15" d="M4.8,140L191,8.5
		c12.8-12,34-10.7,43.5,0L386.8,140c6.4,6.4,6.4,16.8,0,23.2L200.6,280.9c-6.4,6.4-16.8,6.4-23.2,0L4.8,163.2
		C-1.6,156.8-1.6,146.4,4.8,140z"/>
	<path class="st8" d="M367.8,317.8H39c-3.8,0-6.8-3-6.8-6.8V39.4c0-3.8,3-6.8,6.8-6.8l327.4,9.6c3.8,0,6.8,3,6.8,6.8l1.4,262
		C374.6,314.8,371.5,317.8,367.8,317.8z"/>
	<path class="st16" d="M367.8,317.8H39c-3.8,0-6.8-3-6.8-6.8V39.4c0-3.8,3-6.8,6.8-6.8l327.4,9.6c3.8,0,6.8,3,6.8,6.8l1.4,262
		C374.6,314.8,371.5,317.8,367.8,317.8z"/>
	
		<line id="Linie_31_00000005258948349718936970000004420587405227560086_" class="st17" x1="66.5" y1="153.1" x2="194.8" y2="156.6"/>
	
		<line id="Linie_36_00000027571831300002087640000015037097204226553760_" class="st17" x1="65.3" y1="264.7" x2="340.3" y2="271.8"/>
	
		<line id="Linie_30_00000153695403691047272170000007697516219909169819_" class="st17" x1="66.5" y1="191.9" x2="341.5" y2="198.9"/>
	
		<line id="Linie_35_00000136391384132410675840000013645281879272486817_" class="st17" x1="66.5" y1="228.3" x2="341.5" y2="235.4"/>
	
		<line id="Linie_32_00000172438251994751399040000006185331620865992071_" class="st17" x1="213.2" y1="156.6" x2="341.5" y2="160.1"/>
	<path class="st10" d="M386.8,163.2L200.6,280.9c-6.4,6.4-16.8,6.4-23.2,0L4.8,163.2c-3-3-4.6-7-4.8-10.9c0,0.2,0,0.4,0,0.7v221.9
		c0,9.1,7.4,16.4,16.4,16.4h345c9.1,0,16.4-7.4,16.4-16.4l13.7-221.9c0-0.2,0-0.4,0-0.7C391.4,156.3,389.8,160.2,386.8,163.2z"/>
	<g>
		<g class="st3">
			<path class="st15" d="M132,103.7c-1.8-0.1-3.4-0.4-4.9-1.1c-1.4-0.7-2.6-1.7-3.4-3.1c-0.8-1.4-1.2-3.3-1.1-5.6l0.4-11.4
				c0.1-2.3,0.6-4.1,1.5-5.5c0.9-1.4,2.1-2.3,3.6-2.9c1.5-0.6,3.1-0.8,4.9-0.8c1.8,0.1,3.4,0.4,4.9,1.1c1.4,0.7,2.6,1.7,3.4,3.1
				c0.8,1.4,1.2,3.3,1.1,5.6L142,94.6c-0.1,2.3-0.6,4.1-1.4,5.5c-0.9,1.4-2.1,2.3-3.6,2.9S133.8,103.8,132,103.7z M132.2,99
				c1.3,0,2.4-0.3,3.2-1.1c0.8-0.7,1.2-1.9,1.3-3.6L137,83c0.1-1.6-0.3-2.9-1-3.7c-0.7-0.8-1.8-1.2-3.1-1.3c-1.3,0-2.4,0.3-3.2,1.1
				c-0.8,0.7-1.2,1.9-1.2,3.6l-0.4,11.4c-0.1,1.6,0.3,2.9,1,3.7C129.8,98.6,130.8,99,132.2,99z"/>
			<path class="st15" d="M161.3,104.4c-0.7,0-1.3-0.2-1.8-0.5c-0.6-0.3-0.8-0.7-0.8-1.3l0.8-26.6c0-0.6,0.3-1,0.8-1.3
				c0.5-0.3,1-0.4,1.6-0.4l14.3,0.4c0.6,0,1,0.3,1.3,0.8c0.2,0.5,0.4,1,0.3,1.6c0,0.7-0.2,1.2-0.5,1.7c-0.3,0.5-0.7,0.7-1.3,0.7
				l-11.3-0.4l-0.3,8.2l6.3,0.2c0.5,0,1,0.2,1.2,0.7c0.3,0.4,0.4,0.9,0.4,1.5c0,0.5-0.2,0.9-0.4,1.4c-0.3,0.4-0.7,0.7-1.3,0.6
				l-6.3-0.2l-0.4,11.3c0,0.5-0.3,1-0.9,1.2C162.6,104.3,162,104.4,161.3,104.4z"/>
			<path class="st15" d="M194.5,105.4c-0.7,0-1.3-0.2-1.8-0.5c-0.6-0.3-0.8-0.7-0.8-1.3l0.8-26.6c0-0.6,0.3-1,0.8-1.3
				c0.5-0.3,1-0.4,1.6-0.4l14.3,0.4c0.6,0,1,0.3,1.3,0.8c0.2,0.5,0.4,1,0.3,1.6c0,0.7-0.2,1.2-0.5,1.7c-0.3,0.5-0.7,0.7-1.3,0.7
				L198,80.2l-0.3,8.2l6.3,0.2c0.5,0,1,0.2,1.2,0.7c0.3,0.4,0.4,0.9,0.4,1.5c0,0.5-0.2,0.9-0.4,1.4c-0.3,0.4-0.7,0.7-1.3,0.6
				l-6.3-0.2l-0.4,11.3c0,0.5-0.3,1-0.9,1.2C195.8,105.3,195.2,105.5,194.5,105.4z"/>
			<path class="st15" d="M227.4,106.5c-0.6,0-1.1-0.2-1.6-0.5c-0.5-0.3-0.7-0.7-0.7-1.3l0.8-26.6c0-0.6,0.3-1,0.8-1.3
				c0.5-0.3,1-0.4,1.6-0.4l14.6,0.5c0.6,0,1,0.3,1.3,0.8c0.2,0.5,0.4,1,0.3,1.6c0,0.7-0.2,1.2-0.5,1.7s-0.7,0.7-1.3,0.7l-11.6-0.4
				l-0.3,8.2l6.2,0.2c0.5,0,1,0.2,1.2,0.7c0.3,0.4,0.4,0.9,0.4,1.5c0,0.5-0.2,0.9-0.4,1.4c-0.3,0.4-0.7,0.7-1.3,0.6l-6.2-0.2
				l-0.3,8.3l11.6,0.4c0.5,0,1,0.3,1.2,0.7c0.3,0.5,0.4,1,0.4,1.7c0,0.5-0.2,1.1-0.4,1.5c-0.3,0.5-0.7,0.7-1.3,0.7L227.4,106.5z"/>
			<path class="st15" d="M275.6,108.2c-0.4,0-0.7-0.1-1-0.4s-0.6-0.6-0.8-1l-5.5-11.5l-3.5-0.1l-0.3,10.7c0,0.6-0.3,1-0.9,1.3
				c-0.6,0.3-1.2,0.4-1.9,0.4c-0.7,0-1.3-0.2-1.8-0.5c-0.6-0.3-0.8-0.7-0.8-1.3l0.8-26.6c0-0.5,0.2-0.9,0.5-1.2
				c0.3-0.3,0.7-0.5,1.3-0.5l8.1,0.3c1.8,0.1,3.4,0.4,4.9,0.9c1.4,0.6,2.6,1.5,3.4,2.8c0.8,1.3,1.2,3,1.2,5.2c0,1.6-0.3,2.9-0.8,4
				c-0.5,1.1-1.2,2-2,2.6c-0.8,0.6-1.8,1.1-2.8,1.4l5.1,10.2c0.1,0.1,0.1,0.2,0.1,0.4c0,0.1,0,0.2,0,0.3c0,0.4-0.2,0.9-0.5,1.3
				c-0.3,0.4-0.8,0.8-1.3,1S276.2,108.2,275.6,108.2z M265,91l4.5,0.1c1.3,0,2.4-0.3,3.2-0.9c0.8-0.6,1.2-1.7,1.3-3.3
				c0.1-1.6-0.3-2.8-1.1-3.5c-0.8-0.7-1.8-1-3.2-1.1l-4.5-0.1L265,91z"/>
		</g>
	</g>
	<g id="Gruppe_198_00000000203881122700399200000008498101441841267631_" transform="translate(-41.059 -21.396)">
		<path id="Clothes_Body_00000072972641895534600020000011558099414219562160_" class="st18" d="M399.6,227l-6.1-2
			c0,0-43.7,57.1-43.5,81.9l44.1,16.9C404,292,402.9,249.8,399.6,227z"/>
		<g id="humaaan-3_00000095315056388889544170000013712616470570466984_" transform="translate(22.275 3.118)">
			
				<g id="Head_Front_00000121267661659971675290000010891370714322980488_" transform="matrix(0.966, -0.259, 0.259, 0.966, 112.025, 53.485)">
				<g id="Head_00000019651964421402942820000011036400770263229884_" transform="translate(0.12 2.142)">
					<path id="Head-2_00000101825841777005010430000002161284356194562709_" class="st19" d="M211,238.1l12.1-15.4
						c-5.1,0.1-9.4-1-10.9-2.4c-3.7-3.7,5.1-19.9,12.1-24.2c7-4.3,26,3,19.7,16c-2.2,4.5-6.3,7.3-10.8,8.9l-8.1,25.2L211,238.1z"/>
				</g>
				<path id="Hair_00000114771702759822998060000012006457819542802570_" class="st20" d="M211.4,222.2c-2.3-1.3-0.4-3.5,0.3-4.8
					c0.2-0.3,0.6-0.1,1.2,0.2c0.7,0.4,1.4,0.8,1.8,0.1c0.8-1.3-1.7-3.9-1.9-5.1c-0.1-1.5,0.4-3,1.5-2.4c1.5,0.9,3.2,4.8,6.7,6.9
					c3.5,2,10.8-8.8,10.9-8.9c-0.2-2.5-0.5-4.6-1.6-6.3c-6.3-3.5-6.4-5.1-4.2-8.8c1.4-0.1,5.7,0.7,9.9,2.7c2.6,0.7,4.9,2.3,6.5,4.4
					c2.4,2.5,3.8,5.6,3,9.5c0,8.9-7,14.2-12.3,14.3c-0.3-1.9-0.6-3.6-0.7-5.2c1.1-0.3,2-1,2.5-1.9c1.1-2,0.5-4.5-1.5-5.6
					c-0.1-0.1-0.3-0.2-0.4-0.2c-1.5,2.4-6.7,10.5-9.3,12.8C220.7,226.5,213.6,223.6,211.4,222.2z"/>
			</g>
			<g id="Bottom_Skinny_Jeans_1_00000114794697021205373470000008993708269886759603_" transform="translate(18.784 218.436)">
				<path id="Leg_00000116933147882592001400000014325807946543418797_" class="st19" d="M336.4,71.5l-35,156.9h9.1l22.9-71.9
					l34.2-85H336.4z"/>
				<path id="Leg-2_00000116215694132087235280000001516319696935738040_" class="st19" d="M340.3,71.5
					c8.2,28.6,18.5,76.5,21.6,81.7c3.1,5.2,71.2,44.2,71.2,44.2l6.2-6.6c0,0-57.7-45.5-58.5-47.4s-6.2-42.1-6.5-72H340.3z"/>
				<g id="Left_Shoe_00000024682964938536091110000000367717650678695342_" transform="translate(15.833 179.477) rotate(50)">
					<path id="shoe_00000107574348957930323210000005910923946763768992_" class="st1" d="M280.8-313.8c0.3,1.7-0.5,4.7-0.5,4.7
						l-2.4,1.5c0,0,0,0,0,0c-0.3,0.2-0.4,0.6-0.2,0.9l10.2,15.1c0,0,0.6,1.9,1.5,4.8c0.9,2.9,5.2,0.7,5.2,0.7l-6.2-35.2
						c-1.7,0-3.4,0.1-5,0.3l-4,1.9c0,0,0,0-0.1,0c-0.6,0.3-0.8,1.1-0.5,1.7L280.8-313.8z"/>
				</g>
				<g id="Right_Shoe_00000171685455853588490080000000076533109636230074_" transform="translate(209.368 236.097)">
					<path id="shoe-2_00000061469501297642937120000008913260571108926653_" class="st1" d="M98.6-10.6c-1.9,0-5-1.4-5-1.4l-1.2-2.8
						c0,0,0,0,0,0c-0.2-0.4-0.6-0.5-0.9-0.4l-18.2,8c0,0-2.2,0.3-5.5,0.7C64.5-6,66-1.1,66-1.1h39.3c0.3-1.8,0.5-3.6,0.6-5.4
						l-1.3-4.6c0,0,0,0,0,0c-0.2-0.7-1-1.1-1.8-0.9L98.6-10.6z"/>
				</g>
				<path id="Pant_00000158735370309632907030000010848339080766074282_" class="st21" d="M371.9,71.5h-38.5l-31.9,144.9l43,4.6
					L371.9,71.5z"/>
				<path id="Pant-2_00000023973939790972565080000013822006763795748795_" class="st22" d="M384.7,130.9
					c-1.1-2.6-4.3-59.4-4.3-59.4H337c0,0,5.9,64.5,13.3,79.1c7.4,14.6,52,62.5,52,62.5l28.2-32.8
					C430.5,180.2,385.8,133.5,384.7,130.9z"/>
			</g>
			
				<g id="Body_Long_Sleeve_1_00000122722470863049018870000014969711487338256030_" transform="matrix(0.985, -0.174, 0.174, 0.985, 33.592, 67.645)">
				<path id="Skin_00000096052375762604127980000010148655892423480982_" class="st19" d="M334.6,347.8c-3.6-1.3-5.6-5.1-8.7-8.1
					c-2.4-2.4-4.1-1.5-5.7-0.7c-1.5,0.8-3,1.7-4.7-0.1c2.4-2.5,7.7-7,7.5-11.2c-0.1-2.8,2.1-47.5,2.1-47.5l13.5,4.9
					c0,0-7.2,39.6-6.7,44.1c0.2,2.2,5,10.4,8.6,15.3c1.4,2,0,3.4-0.8,3.6C337.9,348.4,336.2,348.4,334.6,347.8z M239,215.1
					l-17.8-15.2c-9.2-2.2-13.4-3.9-12.7-5.1c1.1-1.8,3.6-0.4,4.5-1.5c0.9-1.1-1-4.7-3.1-8c-2-3.3,0-3.1,1.2-2.7
					c4.5,3,8.5,6.5,12.1,10.5l24.2,12.2L239,215.1z"/>
				<path id="Coat_Back_00000125580883584668644560000003847224616042562478_" class="st18" d="M224.4,203.8l4.5-9.3
					c28.9,16.3,65.7,9.1,92.2,21l1.6,5.8C294.6,235.5,249.4,243.8,224.4,203.8z"/>
				<path id="Shirt_00000067199189234496809900000002219993502414869178_" class="st1" d="M328.2,213.5l-15-3
					c-9.8,26.9-31.9,41.9-42.6,59.5c-0.9,1.5-2.5,4.6-0.3,5.4l49.3,18C328.7,261.4,333.1,236.7,328.2,213.5z"/>
				<path id="Coat_Front_00000047038296562721336960000012377302170812663444_" class="st23" d="M321.7,324.8
					c-0.8-5.2-1.3-10.5-1.5-15.8l-38.9-14.2c-0.7-24.8,42.1-82.6,42.1-82.6l4.8,1.5c0.4,0.1,0.7,0.2,1.1,0.3
					c8.8,3.2,15.1,1.5,20,5.3s4.9,9.6-3.7,17c-2.1,1.9-5.1,2.5-7.8,1.6c5.4,21.3,9.1,54.6-5.5,90.9L321.7,324.8z"/>
				<path id="Shade_00000103975680304749525930000006830299966556488327_" class="st24" d="M305.7,303.6c4.1-3.3,8.9-10.5,14.4-21.4
					c-0.2,10.3-0.2,19.3,0.2,26.7L305.7,303.6L305.7,303.6z"/>
			</g>
		</g>
	</g>
</g>
</svg>
