<svg id="Ebene_1" data-name="Ebene 1" xmlns="http://www.w3.org/2000/svg" viewBox="0 0 447.41 435.2"><defs><style>.cls-1{fill:#aac0be;}.cls-2{fill:#94b3b2;}.cls-3{fill:#fff;}.cls-10,.cls-4{fill:#ece9eb;}.cls-4{opacity:0.46;}.cls-5{fill:none;stroke:#84a5a3;stroke-linecap:round;stroke-width:3px;}.cls-6{isolation:isolate;}.cls-7{fill:#2e3676;}.cls-8{fill:#d4a181;}.cls-9{fill:#222045;}.cls-11{fill:#385757;}.cls-12{fill:#4b6868;}.cls-13{fill:#5c63ab;}.cls-14{opacity:0.23;}</style></defs><path id="Rechteck_201" data-name="Rechteck 201" class="cls-1" d="M16.43,136.51H375.18A16.44,16.44,0,0,1,391.61,153l-13.7,221.9a16.44,16.44,0,0,1-16.43,16.44h-345A16.44,16.44,0,0,1,0,374.85V153A16.44,16.44,0,0,1,16.43,136.51Z"/><path id="Rechteck_202" data-name="Rechteck 202" class="cls-2" d="M4.81,140,191,8.53c12.78-12,34-10.7,43.48,0L386.79,140a16.43,16.43,0,0,1,0,23.24L200.58,280.93a16.44,16.44,0,0,1-23.25,0L4.81,163.2A16.45,16.45,0,0,1,4.81,140Z"/><path class="cls-3" d="M367.77,317.81H39A6.79,6.79,0,0,1,32.25,311V39.42A6.79,6.79,0,0,1,39,32.62L366.4,42.21A6.79,6.79,0,0,1,373.19,49l1.37,262A6.79,6.79,0,0,1,367.77,317.81Z"/><path class="cls-4" d="M367.77,317.81H39A6.79,6.79,0,0,1,32.25,311V39.42A6.79,6.79,0,0,1,39,32.62L366.4,42.21A6.79,6.79,0,0,1,373.19,49l1.37,262A6.79,6.79,0,0,1,367.77,317.81Z"/><line id="Linie_31" data-name="Linie 31" class="cls-5" x1="66.48" y1="153.09" x2="194.82" y2="156.62"/><line id="Linie_36" data-name="Linie 36" class="cls-5" x1="65.31" y1="264.75" x2="340.32" y2="271.8"/><line id="Linie_30" data-name="Linie 30" class="cls-5" x1="66.48" y1="191.88" x2="341.5" y2="198.93"/><line id="Linie_35" data-name="Linie 35" class="cls-5" x1="66.48" y1="228.31" x2="341.5" y2="235.36"/><line id="Linie_32" data-name="Linie 32" class="cls-5" x1="213.16" y1="156.62" x2="341.5" y2="160.15"/><path class="cls-1" d="M386.79,163.2,200.58,280.93a16.44,16.44,0,0,1-23.25,0L4.81,163.2A16.36,16.36,0,0,1,0,152.28c0,.23,0,.44,0,.67v221.9a16.44,16.44,0,0,0,16.43,16.44H361.48a16.44,16.44,0,0,0,16.43-16.44L391.61,153c0-.23,0-.44,0-.67A16.36,16.36,0,0,1,386.79,163.2Z"/><g id="GRAFIK" class="cls-6"><g class="cls-6"><path class="cls-2" d="M82.89,105.72a4.15,4.15,0,0,1-1.51-.33,3.81,3.81,0,0,1-1.29-.82,1.53,1.53,0,0,1-.5-1.17,3.31,3.31,0,0,1,0-.41L88.38,77.4a2.2,2.2,0,0,1,1.34-1.31,5.26,5.26,0,0,1,2.17-.39,5.14,5.14,0,0,1,2.16.53,2.18,2.18,0,0,1,1.23,1.39l7.12,26.08a1.86,1.86,0,0,1,.07.42,1.54,1.54,0,0,1-.59,1.11,4.1,4.1,0,0,1-1.36.76,4.69,4.69,0,0,1-1.53.24,2.68,2.68,0,0,1-1.12-.26,1.17,1.17,0,0,1-.61-.87l-1.39-5.51-9.45-.29-1.69,5.41a1.18,1.18,0,0,1-.69.82A2.6,2.6,0,0,1,82.89,105.72ZM87.7,95.14l7.15.23L91.67,82.65Z"/><path class="cls-2" d="M120.18,106.89a3.85,3.85,0,0,1-1.81-.49,1.36,1.36,0,0,1-.8-1.32l.83-26.61a1.35,1.35,0,0,1,.88-1.25,4.06,4.06,0,0,1,1.84-.35,5.4,5.4,0,0,1,1.62.25,2.76,2.76,0,0,1,1.16.84A8.13,8.13,0,0,1,125,79.82l7.44,15.57L133,78.92a1.32,1.32,0,0,1,.88-1.26,4.19,4.19,0,0,1,1.84-.34,4.34,4.34,0,0,1,1.84.45,1.34,1.34,0,0,1,.78,1.32l-.83,26.62a1.39,1.39,0,0,1-.87,1.26,3.9,3.9,0,0,1-1.86.38,4,4,0,0,1-1.73-.43,2.78,2.78,0,0,1-1.26-1.35l-8.35-16.79-.52,16.47a1.37,1.37,0,0,1-.86,1.27A3.9,3.9,0,0,1,120.18,106.89Z"/><path class="cls-2" d="M164,108.51a12.3,12.3,0,0,1-4.86-1.08,7.45,7.45,0,0,1-3.38-3.1,10.38,10.38,0,0,1-1.12-5.57L155,87.38a10.29,10.29,0,0,1,1.47-5.48A7.44,7.44,0,0,1,160.05,79a11.85,11.85,0,0,1,4.77-.77,12.63,12.63,0,0,1,5,1.1,8,8,0,0,1,3.39,2.82,7,7,0,0,1,1.14,4.27,2.48,2.48,0,0,1-.72,2,3.23,3.23,0,0,1-2,.45,4.19,4.19,0,0,1-1.84-.43,1.41,1.41,0,0,1-.78-1.34,5.74,5.74,0,0,0-.33-1.92,3.24,3.24,0,0,0-1.18-1.58,4.77,4.77,0,0,0-2.67-.7A4.21,4.21,0,0,0,161.66,84a5,5,0,0,0-1.24,3.56l-.36,11.38a5,5,0,0,0,1,3.63,4.16,4.16,0,0,0,3.1,1.27,4.25,4.25,0,0,0,3.2-1.07,4.92,4.92,0,0,0,1.27-3.56l.07-2.38-3.33-.11A1.35,1.35,0,0,1,164.2,96a2.65,2.65,0,0,1,.09-2.88,1.38,1.38,0,0,1,1.23-.62l7,.22a1.53,1.53,0,0,1,1.23.55,1.93,1.93,0,0,1,.4,1.27l-.15,4.8a10.58,10.58,0,0,1-1.45,5.49,7.28,7.28,0,0,1-3.57,2.89A12.47,12.47,0,0,1,164,108.51Z"/><path class="cls-2" d="M192.55,109.16a3.1,3.1,0,0,1-1.59-.49,1.42,1.42,0,0,1-.7-1.31l.83-26.58a1.41,1.41,0,0,1,.78-1.27,3.15,3.15,0,0,1,1.62-.38l14.62.46a1.35,1.35,0,0,1,1.27.78,3.21,3.21,0,0,1,.34,1.57,3.13,3.13,0,0,1-.48,1.67,1.38,1.38,0,0,1-1.28.66l-11.62-.36-.26,8.21,6.25.2a1.39,1.39,0,0,1,1.23.67,2.65,2.65,0,0,1,.38,1.52,2.62,2.62,0,0,1-.43,1.36,1.37,1.37,0,0,1-1.31.64l-6.25-.2-.26,8.26,11.63.36a1.4,1.4,0,0,1,1.23.74,3.19,3.19,0,0,1,.38,1.7,3.45,3.45,0,0,1-.44,1.55,1.36,1.36,0,0,1-1.32.69Z"/><path class="cls-2" d="M226.64,110.22a2.71,2.71,0,0,1-1.69-.54,1.51,1.51,0,0,1-.6-1.21l.83-26.62a1.41,1.41,0,0,1,.78-1.27,3.15,3.15,0,0,1,1.62-.38l8,.25a13,13,0,0,1,4,.72,6.18,6.18,0,0,1,3,2.25,7.3,7.3,0,0,1,1.05,4.52,8.31,8.31,0,0,1-1.08,4.13,5.36,5.36,0,0,1-2.62,2.29,7.1,7.1,0,0,1,2.18,1.32,5.41,5.41,0,0,1,1.41,2.14,8.74,8.74,0,0,1,.43,3.37l0,.86a10.43,10.43,0,0,1-1.25,5.08,6.35,6.35,0,0,1-3,2.65,9.87,9.87,0,0,1-4.19.72Zm3.14-4.59,4.6.15a4,4,0,0,0,3-1,4.64,4.64,0,0,0,1.18-3.37l0-.66a4.43,4.43,0,0,0-1-3.42,4.24,4.24,0,0,0-2.93-1.06l-4.6-.14ZM230.21,92l4.6.14a3,3,0,0,0,2.52-.91,3.92,3.92,0,0,0,.88-2.52,4,4,0,0,0-.35-1.88,2.91,2.91,0,0,0-1.12-1.21,3.55,3.55,0,0,0-1.75-.46L230.43,85Z"/><path class="cls-2" d="M269,111.8a12.47,12.47,0,0,1-4.86-1.08,7.47,7.47,0,0,1-3.38-3.11,10.34,10.34,0,0,1-1.12-5.56L260,90.67a10.26,10.26,0,0,1,1.47-5.48,7.39,7.39,0,0,1,3.56-2.89,12.36,12.36,0,0,1,4.92-.77,12.52,12.52,0,0,1,4.88,1.07,7.35,7.35,0,0,1,3.37,3.11,10.46,10.46,0,0,1,1.1,5.57L279,102.65a10.61,10.61,0,0,1-1.45,5.49A7.35,7.35,0,0,1,274,111,12.7,12.7,0,0,1,269,111.8Zm.15-4.69a4.2,4.2,0,0,0,3.19-1,4.93,4.93,0,0,0,1.27-3.58L274,91.11a4.94,4.94,0,0,0-1-3.65,4.29,4.29,0,0,0-3.13-1.25,4.24,4.24,0,0,0-3.18,1.05,5,5,0,0,0-1.24,3.58L265,102.22a5,5,0,0,0,1,3.65A4.19,4.19,0,0,0,269.17,107.11Z"/><path class="cls-2" d="M303.32,112.62a3.84,3.84,0,0,1-1.83-.49,1.39,1.39,0,0,1-.79-1.31l.74-23.5-6-.19a1.38,1.38,0,0,1-1.21-.77,3.43,3.43,0,0,1,.07-3.31,1.34,1.34,0,0,1,1.29-.72l17.38.54a1.36,1.36,0,0,1,1.27.8,3.69,3.69,0,0,1,.34,1.64,3.24,3.24,0,0,1-.49,1.67,1.39,1.39,0,0,1-1.27.7l-6-.19L306.05,111a1.39,1.39,0,0,1-.89,1.27A3.94,3.94,0,0,1,303.32,112.62Z"/></g></g><g id="Gruppe_198" data-name="Gruppe 198"><path id="Clothes_Body" data-name="Clothes Body" class="cls-7" d="M358.57,205.62l-6.13-2S308.69,260.75,309,285.55L353,302.47C362.91,270.6,361.8,228.45,358.57,205.62Z"/><g id="humaaan-3"><g id="Head_Front" data-name="Head Front"><g id="Head"><path id="Head-2" class="cls-8" d="M359.42,212.57l7.66-18c-4.9,1.41-9.37,1.52-11.19.5-4.54-2.56-.21-20.51,5.45-26.52s25.9-3.88,23.14,10.31c-1,4.92-4.14,8.69-8.09,11.41l-1.33,26.49Z"/></g><path id="Hair" class="cls-9" d="M355,195.14c-2.53-.68-1.33-3.29-.94-4.75.1-.38.6-.25,1.17-.09.73.19,1.57.42,1.79-.42.4-1.48-2.69-3.3-3.12-4.44-.52-1.38-.38-3,.88-2.69,1.71.47,4.37,3.84,8.29,4.89s8.18-11.27,8.23-11.4a13.45,13.45,0,0,0-3.2-5.69c-7-1.76-7.5-3.23-6.37-7.45,1.34-.5,5.69-.79,10.25,0a12,12,0,0,1,7.42,2.59,10.12,10.12,0,0,1,5.36,8.43c2.34,8.63-3,15.53-8.19,17-.8-1.72-1.47-3.35-2-4.89a4.11,4.11,0,0,0-.95-7.55l-.49-.1c-.83,2.71-3.72,11.87-5.65,14.81C365.12,196.86,357.53,195.83,355,195.14Z"/></g><g id="Bottom_Skinny_Jeans_1" data-name="Bottom Skinny Jeans 1"><path id="Leg" class="cls-8" d="M336.37,271.61l-35,156.91h9.05l22.91-71.88,34.17-85Z"/><path id="Leg-2" class="cls-8" d="M340.32,271.61c8.23,28.59,18.49,76.47,21.64,81.68s71.21,44.22,71.21,44.22L439.4,391s-57.68-45.51-58.53-47.37-6.15-42.09-6.52-72Z"/><g id="Left_Shoe" data-name="Left Shoe"><path id="shoe" class="cls-10" d="M436.75,393.07a14.36,14.36,0,0,1-3.9,2.62l-2.66-.85h0a.62.62,0,0,0-.78.43l-5,17.47s-1.05,1.71-2.7,4.24,2.78,4.42,2.78,4.42l22.94-27.34a38.49,38.49,0,0,0-3.46-3.65l-4-1.81-.05,0a1.27,1.27,0,0,0-1.64.72Z"/></g><g id="Right_Shoe" data-name="Right Shoe"><path id="shoe-2" class="cls-10" d="M307.93,425.67a16,16,0,0,1-5-1.4l-1.17-2.8h0a.7.7,0,0,0-.93-.36l-18.25,8s-2.18.32-5.47.71-1.77,5.38-1.77,5.38h39.26a41.13,41.13,0,0,0,.63-5.41l-1.33-4.6v-.05a1.39,1.39,0,0,0-1.77-.87Z"/></g><path id="Pant" class="cls-11" d="M371.9,271.61H333.36L301.47,416.53l43,4.59Z"/><path id="Pant-2" class="cls-12" d="M384.72,331c-1.12-2.64-4.35-59.4-4.35-59.4H337s5.91,64.52,13.31,79.12,52,62.49,52,62.49l28.22-32.85S385.84,333.65,384.72,331Z"/></g><g id="Body_Long_Sleeve_1" data-name="Body Long Sleeve 1"><path id="Skin" class="cls-8" d="M404.9,333.74c-3.78-.67-6.46-4.05-10-6.51-2.75-1.93-4.31-.8-5.76.34s-2.61,2.16-4.67.77c2-2.92,6.32-8.22,5.44-12.36-.58-2.77-6.21-47.2-6.21-47.2l14.12,2.44s-.16,40.25,1.11,44.61c.62,2.13,6.73,9.35,11.09,13.63,1.76,1.72.63,3.32-.21,3.65A9,9,0,0,1,404.9,333.74ZM287.66,219.67l-20.19-11.91q-14.15-.87-13.36-2.81c.78-1.94,3.46-1,4.2-2.24s-1.85-4.44-4.43-7.37-.52-3.07.73-2.83a59.31,59.31,0,0,1,13.71,8.29l26,7.83Z"/><path id="Coat_Back" data-name="Coat Back" class="cls-7" d="M271.3,211.06l2.86-9.92c31.28,11,66.33-2.47,94.49,4.68l2.57,5.44C345.94,230.09,302.86,246.08,271.3,211.06Z"/><path id="Shirt" class="cls-10" d="M375.25,202.56l-15.32-.3c-5,28.22-24.13,46.86-31.57,66-.64,1.66-1.69,5,.67,5.4l51.66,9.13C384,249.65,384.08,224.53,375.25,202.56Z"/><path id="Coat_Front" data-name="Coat Front" class="cls-13" d="M388.25,313.31A131.66,131.66,0,0,1,384,298l-40.83-7.21c-5-24.31,27.09-88.7,27.09-88.7l5,.59a7,7,0,0,1,1.12.12c9.28,1.64,15.11-1.11,20.62,1.7s6.52,8.55-.66,17.4a8,8,0,0,1-7.43,2.93c9.06,20,18.41,52.21,10.43,90.48Z"/><path id="Shade" class="cls-14" d="M368.74,295.26c3.46-4,7-11.93,10.44-23.56,1.59,10.22,3.21,19.05,4.82,26.26l-15.26-2.7Z"/></g></g></g></svg>